<svg xmlns="http://www.w3.org/2000/svg" xmlns:xlink="http://www.w3.org/1999/xlink" width="341.033" height="300" viewBox="0 0 341.033 300">
  <defs>
    <clipPath id="clip-path">
      <rect id="Rectangle_74" data-name="Rectangle 74" width="185.944" height="264.448" fill="#010449"/>
    </clipPath>
  </defs>
  <g id="CBI_Icon" data-name="CBI Icon" transform="translate(-1650 -2558.495)">
    <path id="Path_633" data-name="Path 633" d="M341.033,0,0,27.619V71.1L341.033,43.485Z" transform="translate(1650 2787.391)" fill="#e92427"/>
    <g id="Group_127" data-name="Group 127" transform="translate(1741.312 2558.495)">
      <g id="Group_126" data-name="Group 126" clip-path="url(#clip-path)">
        <path id="Path_628" data-name="Path 628" d="M131.776.035a22.161,22.161,0,0,0-8.038,1L4.588,29.486c-.622.166-1.128.29-1.673.431C.392,30.846,0,33.688,0,36.168v223.4a4.895,4.895,0,0,0,4.875,4.884H161.484a24.509,24.509,0,0,0,24.461-24.46V54a24.5,24.5,0,0,0-24.461-24.452h-4.875V24.63A23.97,23.97,0,0,0,144.938,4.289,27.882,27.882,0,0,0,131.776.035M129.625,9.88A18.492,18.492,0,0,1,139.738,12.6c4.183,2.6,7.083,6.487,7.083,12.035v4.913H46.436l79.939-19.079.363-.111a11.05,11.05,0,0,1,2.887-.477ZM9.788,39.331h151.7a14.551,14.551,0,0,1,14.711,14.662V239.986a14.551,14.551,0,0,1-14.711,14.663H9.788ZM92.977,68.685c.067,0,.125.036.191.038a48.936,48.936,0,1,1-.392,0,.728.728,0,0,1,.2-.038m0-7.54a7.931,7.931,0,0,0-.819.043,56.474,56.474,0,1,0,1.634,0,7.652,7.652,0,0,0-.815-.043M48.443,195.939c-6.531.313-6.063,10.109.469,9.8h88.121c6.531,0,6.531-9.8,0-9.8H48.912a3.583,3.583,0,0,0-.469,0m.469,29.335c-6.382.148-6.382,9.646,0,9.788h88.121c6.382-.148,6.382-9.646,0-9.788Zm57.879-94.146a26.432,26.432,0,1,1,0-26.986,21.141,21.141,0,1,0,0,26.986m6.946-10.642-9.176-2.95,8.961-2.824.467-9.425,5.577,7.521,8.753-2.758L122.8,117.63l5.4,7.69-8.863-3.049-5.932,7.711" transform="translate(0 0)" fill="#010449"/>
      </g>
    </g>
  </g>
</svg>
