<svg id="Group_123" data-name="Group 123" xmlns="http://www.w3.org/2000/svg" xmlns:xlink="http://www.w3.org/1999/xlink" width="1489.5" height="210.296" viewBox="0 0 1489.5 210.296">
  <defs>
    <clipPath id="clip-path">
      <rect id="Rectangle_72" data-name="Rectangle 72" width="1489.5" height="210.296" fill="none"/>
    </clipPath>
  </defs>
  <path id="Path_601" data-name="Path 601" d="M0,5V160.611H36.458V100.589H77.249V70.357H36.458V34.345h80.028V5Z" transform="translate(0 0.558)" fill="#000"/>
  <g id="Group_122" data-name="Group 122">
    <g id="Group_121" data-name="Group 121" clip-path="url(#clip-path)">
      <path id="Path_602" data-name="Path 602" d="M167.125,137.409C158.9,152.081,144.228,159.2,128,159.2c-29.788,0-42.459-18.007-42.459-43.348V45.6h35.124v60.688c0,16.45,6.223,24.231,19.562,24.231s23.12-9.781,23.342-28.454V45.6h34.9V156.083H169.793Z" transform="translate(9.539 5.085)" fill="#000"/>
      <path id="Path_603" data-name="Path 603" d="M229.383,45.889l2.89,20.007C240.72,51,255.392,43,273.175,43,301.853,43,314.3,60.561,314.3,87.015v69.356H279.178V98.8c0-19.118-6.669-25.341-19.562-25.341-14.227,0-24.009,9.558-24.231,28.676v54.241H200.261V45.889Z" transform="translate(22.333 4.795)" fill="#000"/>
      <path id="Path_604" data-name="Path 604" d="M398.255,143.493c-7.336,13.116-20.23,20.229-37.792,20.229-28.454,0-46.683-19.562-46.683-57.13,0-39.125,19.34-59.355,48.683-59.355,14.45,0,25.343,5.335,32.456,15.117V5h35.123V160.61h-30.01ZM370.69,73.246c-14.894,0-22.9,9.559-22.9,32.455,0,21.563,7.558,31.789,23.12,31.789,14.227,0,24.453-10,24.453-32.011,0-23.12-10.448-32.234-24.676-32.234" transform="translate(34.992 0.558)" fill="#000"/>
      <path id="Path_605" data-name="Path 605" d="M449.575,0c12.895,0,20.231,5.558,20.231,18.229,0,12.227-7.336,18.005-20.231,18.005s-20.228-5.779-20.228-18.005C429.347,5.558,436.683,0,449.575,0m17.562,161.168H432.014V50.685h35.124Z" transform="translate(47.88)" fill="#000"/>
      <path id="Path_606" data-name="Path 606" d="M504.76,45.889,507.65,65.9C516.1,51,530.769,43,548.552,43c28.677,0,41.126,17.562,41.126,44.016v69.356H554.555V98.8c0-19.118-6.669-25.341-19.562-25.341-14.227,0-24.009,9.558-24.231,28.676v54.241H475.638V45.889Z" transform="translate(53.042 4.795)" fill="#000"/>
      <path id="Path_607" data-name="Path 607" d="M704.375,151.927c0,36.679-26.01,53.574-62.022,53.574-21.786,0-41.571-6.447-50.462-24.231l19.784-17.116c6.669,11.781,16.9,16.227,29.344,16.227,17.562,0,28.455-8.669,28.455-28.009V136.588c-6.891,12.227-18.229,18.451-34.679,18.451-27.787,0-46.238-18.451-46.238-55.575C588.557,61.895,607.452,43,636.8,43c16.45,0,29.122,6.225,36.236,18.9l2.89-16.006h28.454Zm-59.132-83.14c-15.117,0-23.118,9.781-23.118,30.233,0,20.9,8,30.454,23.118,30.454,14.672,0,24.453-10,24.453-30.677,0-20.452-10.226-30.011-24.453-30.011" transform="translate(65.635 4.795)" fill="#000"/>
      <path id="Path_608" data-name="Path 608" d="M961.077,45.891H990.2l2.89,22.008c7.56-16.228,22.008-25.343,39.57-24.9l.222,33.344c-24.676-2-36.458,12.45-36.679,36.235v43.793H961.077Z" transform="translate(107.178 4.794)" fill="#000"/>
      <path id="Path_609" data-name="Path 609" d="M1036.6,5h34.9l-.889,95.589,40.9-50.462h38.013l-42.014,49.128,42.46,61.355H1111.29l-26.454-38.68-13.56,14.893V160.61H1036.6Z" transform="translate(115.6 0.558)" fill="#000"/>
      <path id="Path_610" data-name="Path 610" d="M1133.633,101.909c0-37.125,20.451-58.909,56.464-58.909,36.9,0,52.019,24.452,52.019,55.8a78.535,78.535,0,0,1-.889,12h-74.248c1.554,17.562,10.671,24.675,26.674,24.675,12.005,0,20.007-3.556,25.565-14l21.119,12.893c-9.113,17.117-26.453,25.12-49.349,25.12-35.124,0-57.354-18.451-57.354-57.576m33.345-11.337h42.9c-.889-15.561-7.781-23.12-20.452-23.12-12.892,0-21.118,7.336-22.452,23.12" transform="translate(126.421 4.795)" fill="#000"/>
      <path id="Path_611" data-name="Path 611" d="M1273.031,156.527,1229.46,45.6H1265.7l25.787,73.58,24.9-73.58h36.012l-51.351,130.935c-8.67,21.786-24.9,28.455-45.572,28.455a61.362,61.362,0,0,1-23.786-4.225l3.557-25.119a39.48,39.48,0,0,0,16.006,3.557c7.781,0,15.117-3.112,18.9-14.005Z" transform="translate(137.107 5.085)" fill="#000"/>
      <path id="Path_612" data-name="Path 612" d="M878.818,5V35.678H831.246V160.61H794.788V35.678H747.216V5Z" transform="translate(83.328 0.558)" fill="#000"/>
      <path id="Path_613" data-name="Path 613" d="M927.941,137.409c-8.225,14.672-22.9,21.786-39.124,21.786-29.789,0-42.46-18.007-42.46-43.348V45.6h35.124v60.688c0,16.45,6.225,24.231,19.562,24.231s23.12-9.781,23.342-28.454V45.6h34.9V156.083H930.609Z" transform="translate(94.384 5.085)" fill="#000"/>
    </g>
  </g>
</svg>
