<svg xmlns="http://www.w3.org/2000/svg" width="67" height="67" viewBox="0 0 67 67">
  <path id="Path_3" data-name="Path 3" d="M642.249,1339.47a24.532,24.532,0,0,0-8.126,1.573,17.125,17.125,0,0,0-9.78,9.814,24.6,24.6,0,0,0-1.541,8.136c-.156,3.573-.192,4.713-.175,13.809s.058,10.238.228,13.812a24.543,24.543,0,0,0,1.573,8.126,17.125,17.125,0,0,0,9.816,9.778,24.6,24.6,0,0,0,8.133,1.542c3.573.157,4.714.192,13.809.174s10.239-.057,13.812-.227a24.628,24.628,0,0,0,8.127-1.572,17.117,17.117,0,0,0,9.777-9.817,24.515,24.515,0,0,0,1.541-8.131c.157-3.575.194-4.717.176-13.813s-.058-10.236-.228-13.808a24.549,24.549,0,0,0-1.573-8.129A17.107,17.107,0,0,0,678,1340.96a24.5,24.5,0,0,0-8.133-1.542c-3.573-.158-4.714-.193-13.811-.176s-10.237.057-13.81.228m.391,60.56a18.571,18.571,0,0,1-6.222-1.14,11.089,11.089,0,0,1-6.37-6.345,18.553,18.553,0,0,1-1.165-6.219c-.166-3.531-.2-4.591-.22-13.536s.015-10,.169-13.536a18.533,18.533,0,0,1,1.14-6.22,11.092,11.092,0,0,1,6.346-6.371,18.554,18.554,0,0,1,6.218-1.164c3.533-.167,4.591-.2,13.533-.221s10.005.015,13.539.17a18.5,18.5,0,0,1,6.219,1.139,11.088,11.088,0,0,1,6.371,6.348,18.465,18.465,0,0,1,1.164,6.215c.168,3.533.206,4.592.222,13.535s-.015,10-.17,13.536a18.563,18.563,0,0,1-1.14,6.224,11.086,11.086,0,0,1-6.347,6.369,18.521,18.521,0,0,1-6.215,1.165c-3.533.166-4.591.2-13.537.22s-10-.016-13.535-.169m27.31-45.2a4.02,4.02,0,1,0,4.011-4.027,4.02,4.02,0,0,0-4.011,4.027m-31.028,17.94a17.2,17.2,0,1,0,17.167-17.234,17.2,17.2,0,0,0-17.167,17.234m6.034-.012a11.167,11.167,0,1,1,11.187,11.145,11.167,11.167,0,0,1-11.187-11.145" transform="translate(-622.623 -1339.238)" fill="#fff"/>
</svg>
