<svg xmlns="http://www.w3.org/2000/svg" width="67" height="67" viewBox="0 0 67 67">
  <path id="Path_6" data-name="Path 6" d="M373.749,1406.238H326.136a9.694,9.694,0,0,1-9.693-9.694v-47.612a9.694,9.694,0,0,1,9.693-9.694h47.613a9.694,9.694,0,0,1,9.694,9.694v47.612a9.694,9.694,0,0,1-9.694,9.694m-37.21-9.967H325.908v-31.988h10.631Zm-5.315-36.352h-.069a5.506,5.506,0,0,1-5.875-5.528c0-3.138,2.377-5.528,6.015-5.528s5.875,2.39,5.944,5.528c0,3.069-2.308,5.528-6.015,5.528m10.152,36.352h10.632v-17.863a7.278,7.278,0,0,1,.35-2.594,5.821,5.821,0,0,1,5.455-3.889c3.848,0,5.386,2.934,5.386,7.233v17.113H373.83V1377.93c0-9.825-5.244-14.4-12.24-14.4a10.589,10.589,0,0,0-9.652,5.39h.07v-4.64H341.376c.14,3,0,31.988,0,31.988" transform="translate(-316.443 -1339.238)" fill="#fff" fill-rule="evenodd"/>
</svg>
