<?xml version="1.0" encoding="UTF-8"?><svg id="Layer_2" xmlns="http://www.w3.org/2000/svg" viewBox="0 0 451.94 68.54"><defs><style>.cls-1{fill:#f1f2f2;stroke-width:0px;}</style></defs><g id="Layer_1-2"><path class="cls-1" d="m66.72,66.02c13.45-1.04,26.9-1.78,40.35-2.53,25.42.03,94.7.03,121.05.03,26.57,0,95.32,0,121.05,0,13.45.76,26.9,1.5,40.35,2.5-13.45,1-26.9,1.74-40.35,2.5-25.42,0-94.7,0-121.05,0-26.57,0-95.32,0-121.05.02-13.45-.75-26.9-1.48-40.35-2.52h0Z"/><path class="cls-1" d="m120.17,32.39v8.83h-32.45V.81h31.7v8.83h-20.38v6.81h17.96v8.55h-17.96v7.39h21.13Z"/><path class="cls-1" d="m124.39,21.02c0-12.3,9.41-21.02,22.23-21.02,7.45,0,13.45,2.71,17.38,7.62l-7.28,6.58c-2.54-3.06-5.66-4.74-9.53-4.74-6.64,0-11.26,4.62-11.26,11.55s4.62,11.55,11.26,11.55c3.87,0,6.99-1.67,9.53-4.73l7.28,6.58c-3.93,4.91-9.93,7.62-17.38,7.62-12.82,0-22.23-8.72-22.23-21.02Z"/><path class="cls-1" d="m166.13,21.02c0-12.12,9.53-21.02,22.46-21.02s22.46,8.89,22.46,21.02-9.53,21.02-22.46,21.02-22.46-8.89-22.46-21.02Zm33.37,0c0-6.99-4.79-11.55-10.91-11.55s-10.91,4.56-10.91,11.55,4.79,11.55,10.91,11.55,10.91-4.56,10.91-11.55Z"/><path class="cls-1" d="m214.23,37.59l3.75-8.43c3.58,2.37,8.66,3.98,13.34,3.98s6.58-1.33,6.58-3.29c0-6.41-22.98-1.73-22.98-16.74,0-7.22,5.89-13.11,17.9-13.11,5.25,0,10.68,1.21,14.67,3.52l-3.52,8.49c-3.87-2.08-7.68-3.12-11.2-3.12-4.79,0-6.52,1.62-6.52,3.64,0,6.18,22.92,1.56,22.92,16.46,0,7.04-5.89,13.05-17.9,13.05-6.64,0-13.22-1.79-17.03-4.45Z"/><path class="cls-1" d="m275.2,26.73v14.49h-11.43v-14.67L248.35.81h12.07l9.58,16.05,9.58-16.05h11.09l-15.47,25.93Z"/><path class="cls-1" d="m289.87,37.59l3.75-8.43c3.58,2.37,8.66,3.98,13.34,3.98s6.58-1.33,6.58-3.29c0-6.41-22.98-1.73-22.98-16.74,0-7.22,5.89-13.11,17.9-13.11,5.25,0,10.68,1.21,14.67,3.52l-3.52,8.49c-3.87-2.08-7.68-3.12-11.2-3.12-4.79,0-6.52,1.62-6.52,3.64,0,6.18,22.92,1.56,22.92,16.46,0,7.04-5.89,13.05-17.9,13.05-6.64,0-13.22-1.79-17.03-4.45Z"/><path class="cls-1" d="m338.08,9.87h-12.41V.81h36.2v9.07h-12.36v31.35h-11.43V9.87Z"/><path class="cls-1" d="m398.59,32.39v8.83h-32.45V.81h31.7v8.83h-20.38v6.81h17.96v8.55h-17.96v7.39h21.13Z"/><path class="cls-1" d="m441.44,41.23l-.12-21.42-10.39,17.44h-5.08l-10.33-16.86v20.84h-10.57V.81h9.41l14.2,23.33,13.86-23.33h9.41l.12,40.42h-10.51Z"/><path class="cls-1" d="m18.76.42H0v41.03h11.61v-10.73h7.15c11.2,0,18.23-5.8,18.23-15.12S29.95.42,18.76.42Zm-.7,21.16h-6.45v-12.02h6.45c4.81,0,7.21,2.23,7.21,6.04s-2.4,5.98-7.21,5.98Z"/><path class="cls-1" d="m33.67.42c.38.27.74.54,1.09.83,2.69,2.24,4.57,5.07,5.58,8.37h5.92v31.83h11.61V9.62h12.54V.42h-36.74Z"/></g></svg>