<?xml version="1.0" encoding="UTF-8"?><svg id="Layer_2" xmlns="http://www.w3.org/2000/svg" xmlns:xlink="http://www.w3.org/1999/xlink" viewBox="0 0 640.85 627.38"><defs><style>.cls-1{fill:url(#linear-gradient);}.cls-1,.cls-2,.cls-3,.cls-4,.cls-5,.cls-6,.cls-7,.cls-8,.cls-9,.cls-10,.cls-11,.cls-12,.cls-13,.cls-14,.cls-15,.cls-16,.cls-17,.cls-18,.cls-19,.cls-20,.cls-21,.cls-22,.cls-23{stroke-width:0px;}.cls-2{fill:url(#linear-gradient-4);}.cls-3{fill:url(#linear-gradient-2);}.cls-4{fill:url(#linear-gradient-3);}.cls-5{fill:url(#linear-gradient-7);}.cls-6{fill:url(#linear-gradient-5);}.cls-7{fill:url(#linear-gradient-6);}.cls-24{isolation:isolate;}.cls-8{fill:#f2f3f2;}.cls-9{fill:#f8f2e8;}.cls-10{fill:#2d2c2c;}.cls-11{fill:#081a36;}.cls-12{fill:#091a35;}.cls-13{fill:#224c45;}.cls-14{fill:#e2262a;}.cls-15{fill:#db2727;}.cls-16{fill:#8d1834;}.cls-17{fill:#871634;}.cls-18{fill:#80191c;}.cls-19{fill:#f1f2f2;}.cls-20{fill:#e72c2d;}.cls-21{fill:#e7292b;}.cls-22{fill:#e7282b;}.cls-23{fill:#ea2427;}</style><linearGradient id="linear-gradient" x1="-1288.95" y1="-4601.55" x2="-1245.27" y2="-4601.55" gradientTransform="translate(-4281.13 1457.17) rotate(90)" gradientUnits="userSpaceOnUse"><stop offset="0" stop-color="#081a36"/><stop offset="1" stop-color="#ea2427"/></linearGradient><linearGradient id="linear-gradient-2" x1="565.44" y1="-2073.05" x2="609.12" y2="-2073.05" gradientTransform="translate(-1857.31 -346.77) rotate(90)" xlink:href="#linear-gradient"/><linearGradient id="linear-gradient-3" x1="-255.3" y1="953.24" x2="-211.62" y2="953.24" gradientTransform="translate(423.54 -599.37)" xlink:href="#linear-gradient"/><linearGradient id="linear-gradient-4" x1="-3133.11" y1="2198.34" x2="-3089.42" y2="2198.34" gradientTransform="translate(3374.17 -1753.01) rotate(.01)" xlink:href="#linear-gradient"/><linearGradient id="linear-gradient-5" x1="-5900.82" y1="724.63" x2="-5857.13" y2="724.63" gradientTransform="translate(-346.05 -5434.37) rotate(-90)" xlink:href="#linear-gradient"/><linearGradient id="linear-gradient-6" x1="-6474.19" y1="-2358.11" x2="-6430.5" y2="-2358.11" gradientTransform="translate(2809.21 -6098.61) rotate(-90)" xlink:href="#linear-gradient"/><linearGradient id="linear-gradient-7" x1="-4421.43" y1="-4728.4" x2="-4377.74" y2="-4728.4" gradientTransform="translate(-3974.61 -4487.84) rotate(180)" xlink:href="#linear-gradient"/></defs><g id="Layer_1-2"><path class="cls-11" d="m320.42,555.99c-61.96,0-120.21-24.13-164.02-67.94-43.81-43.81-67.94-102.06-67.94-164.02s24.13-120.21,67.94-164.02c43.81-43.81,102.06-67.94,164.02-67.94s120.21,24.13,164.02,67.94c43.81,43.81,67.94,102.06,67.94,164.02s-24.13,120.21-67.94,164.02c-43.81,43.81-102.06,67.94-164.02,67.94Zm0-460.92c-61.16,0-118.66,23.82-161.9,67.06s-67.06,100.74-67.06,161.9,23.82,118.65,67.06,161.9,100.74,67.06,161.9,67.06,118.66-23.82,161.9-67.06,67.06-100.74,67.06-161.9-23.82-118.65-67.06-161.9-100.74-67.06-161.9-67.06Z"/><ellipse class="cls-19" cx="320.44" cy="324.03" rx="112.34" ry="112.12" transform="translate(-135.25 319.74) rotate(-44.78)"/><path class="cls-23" d="m320.28,437.76c-2.4,0-4.81-.08-7.23-.23-27.38-1.73-53.29-13.51-72.95-33.17-19.66-19.66-31.44-45.57-33.17-72.95-2.07-32.71,9.99-64.72,33.08-87.81s55.08-35.15,87.81-33.08c27.38,1.73,53.29,13.51,72.95,33.17,19.66,19.66,31.44,45.57,33.17,72.95h0c2.07,32.71-9.99,64.72-33.08,87.81-21.39,21.39-50.42,33.31-80.58,33.31Zm.32-224.46c-29.37,0-57.64,11.61-78.46,32.43-22.48,22.48-34.22,53.64-32.21,85.5,1.68,26.65,13.15,51.87,32.3,71.01s44.36,30.61,71.02,32.3c31.85,2.01,63.02-9.73,85.5-32.21,22.48-22.48,34.22-53.64,32.21-85.5h0c-1.68-26.65-13.15-51.87-32.3-71.01s-44.36-30.61-71.01-32.3c-2.35-.15-4.7-.22-7.04-.22Z"/><path class="cls-21" d="m236.58,304.49h7.42c7.8,0,12.52-3.95,12.52-10.46s-4.72-10.46-12.52-10.46h-11.71v30.01h4.29v-9.09h0Zm0-17.19h7.29c5.49,0,8.36,2.44,8.36,6.73s-2.87,6.73-8.36,6.73h-7.29v-13.46Z"/><path class="cls-21" d="m264.57,302.26c0-4.97,2.74-7.67,7.16-7.67.3,0,.6,0,.94.04v-3.99c-3.99,0-6.82,1.37-8.28,4.03v-3.82h-3.95v22.72h4.12v-11.32h0Z"/><path class="cls-21" d="m285.72,313.84c6.82,0,11.79-4.84,11.79-11.62s-4.97-11.58-11.79-11.58-11.83,4.8-11.83,11.58,5.02,11.62,11.83,11.62Zm0-19.59c4.37,0,7.63,3.13,7.63,7.98s-3.26,8.02-7.63,8.02-7.67-3.17-7.67-8.02,3.3-7.98,7.67-7.98Z"/><path class="cls-21" d="m339.34,290.64c-6.56,0-11.4,4.84-11.4,11.58s4.89,11.62,12.22,11.62c3.77,0,6.9-1.29,8.96-3.69l-2.27-2.66c-1.67,1.84-3.9,2.74-6.56,2.74-4.5,0-7.72-2.66-8.23-6.65h18.44c.04-.39.09-.9.09-1.24,0-6.99-4.67-11.71-11.23-11.71h0Zm-7.29,9.99c.43-3.86,3.34-6.52,7.29-6.52s6.86,2.7,7.29,6.52h-14.58Z"/><path class="cls-21" d="m358.87,302.26c0-4.97,2.74-7.67,7.16-7.67.3,0,.6,0,.94.04v-3.99c-3.99,0-6.82,1.37-8.28,4.03v-3.82h-3.95v22.72h4.12v-11.32Z"/><path class="cls-21" d="m372.72,306.72c0,4.59,2.62,7.12,7.2,7.12,1.84,0,3.73-.51,4.97-1.59l-1.29-2.96c-.86.69-2.02,1.07-3.22,1.07-2.27,0-3.56-1.37-3.56-3.82v-12.31h6.52v-3.39h-6.52v-4.97h-4.12v4.97h-3.86v3.39h3.86v12.48h0Z"/><path class="cls-21" d="m394.77,315.12c-1.11,2.62-2.36,3.52-4.33,3.52-1.54,0-2.96-.6-4.07-1.67l-1.76,3.09c1.42,1.37,3.64,2.1,5.83,2.1,3.47,0,6.09-1.5,8.1-6.3l11.02-25h-4.03l-7.85,18.18-7.93-18.18h-4.29l10.03,22.68-.73,1.59h0Z"/><polygon class="cls-21" points="231.32 326.57 240.28 326.57 240.28 350.45 247.91 350.45 247.91 326.57 256.96 326.57 256.96 320.4 231.32 320.4 231.32 326.57"/><path class="cls-21" d="m280.22,337.85c0,4.07-2.44,6.56-6.05,6.56s-6.26-2.49-6.26-6.56v-17.41h-7.63v17.41c0,7.93,5.4,12.95,13.85,12.95s13.68-5.02,13.68-12.95v-17.41h-7.59v17.41h0Z"/><path class="cls-21" d="m317.07,330.9c0-6.31-4.05-10.03-11.18-10.42v-10.33c1.89,2.44,4.72,3.69,7.93,3.69,6.65,0,11.49-4.63,11.49-11.62s-4.84-11.58-11.49-11.58c-3.34,0-6.26,1.29-8.1,3.82v-3.6h-3.95v29.59h-10.6v30.01h7.63v-8.45h6l4.46,8.45h8.66l-6.3-9.9c3.52-1.76,5.45-5.06,5.45-9.65h0Zm-3.59-36.66c4.37,0,7.67,3.17,7.67,7.98s-3.3,8.02-7.67,8.02-7.63-3.17-7.63-8.02,3.3-7.98,7.63-7.98h0Zm-8.89,41.76h-5.79v-9.56h5.79c3.3,0,5.23,1.59,5.23,4.72s-1.93,4.85-5.23,4.85Z"/><polygon class="cls-21" points="349.18 320.44 340.35 320.44 328.86 333.43 328.86 320.44 321.22 320.44 321.22 350.45 328.86 350.45 328.86 343.08 332.84 338.66 340.78 350.45 349.91 350.45 338.03 332.87 349.18 320.44"/><polygon class="cls-21" points="359.55 338.41 373.88 338.41 373.88 332.4 359.55 332.4 359.55 326.44 375.42 326.44 375.42 320.44 351.92 320.44 351.92 350.45 375.89 350.45 375.89 344.45 359.55 344.45 359.55 338.41"/><polygon class="cls-21" points="391.79 333.52 384.55 320.44 376.92 320.44 388.02 340.98 388.02 350.45 395.61 350.45 395.61 340.76 406.5 320.44 398.87 320.44 391.79 333.52"/><path class="cls-21" d="m306.79,384.64l-3.2-4.59c-.2.02-.4.02-.6.02h-3.53v4.56h-2.91v-15.66h6.44c4.12,0,6.67,2.1,6.67,5.57,0,2.37-1.21,4.12-3.33,4.94l3.6,5.14h-3.13Zm-3.94-13.2h-3.4v6.24h3.4c2.55,0,3.87-1.16,3.87-3.13s-1.32-3.11-3.87-3.11Z"/><path class="cls-21" d="m312.24,376.81c0-4.63,3.58-8.05,8.43-8.05s8.43,3.4,8.43,8.05-3.58,8.05-8.43,8.05-8.43-3.42-8.43-8.05Zm13.93,0c0-3.2-2.35-5.5-5.5-5.5s-5.5,2.3-5.5,5.5,2.35,5.5,5.5,5.5,5.5-2.3,5.5-5.5Z"/><path class="cls-21" d="m332.18,377.81v-8.84h2.91v8.72c0,3.22,1.45,4.61,3.98,4.61s3.96-1.39,3.96-4.61v-8.72h2.86v8.84c0,4.56-2.57,7.05-6.84,7.05s-6.87-2.48-6.87-7.05Z"/><path class="cls-21" d="m362.8,374.55c0,3.44-2.55,5.57-6.67,5.57h-3.53v4.52h-2.91v-15.66h6.44c4.12,0,6.67,2.1,6.67,5.57Zm-2.93,0c0-1.97-1.32-3.11-3.87-3.11h-3.4v6.22h3.4c2.55,0,3.87-1.14,3.87-3.11Z"/><path class="cls-21" d="m290.24,376.63h-3.94v2.39h3.94v2.12c-.98.83-2.65,1.23-3.94,1.23-2.77,0-5.3-1.88-5.3-5.48,0-3.33,2.35-5.59,5.68-5.59,1.68,0,3.09.56,4.32,1.79l1.83-1.79c-1.48-1.68-3.67-2.55-6.29-2.55-4.9,0-8.48,3.38-8.48,8.16,0,5.12,3.71,7.94,7.96,7.94,1.93,0,3.44-.38,4.56-1.14v.92h2.39v-8.01h-2.75Z"/><rect class="cls-1" x="318.92" y="168.22" width="3" height="43.68"/><rect class="cls-3" x="214.24" y="218.68" width="3" height="43.68" transform="translate(-106.82 259.24) rotate(-51.43)"/><rect class="cls-4" x="168.08" y="352.33" width="43.68" height="3" transform="translate(-74.03 51.19) rotate(-12.87)"/><rect class="cls-2" x="240.58" y="443.15" width="43.68" height="3" transform="translate(-252.04 488.31) rotate(-64.3)"/><rect class="cls-6" x="377.13" y="422.76" width="3" height="43.68" transform="translate(-155.43 208.36) rotate(-25.72)"/><rect class="cls-7" x="449.54" y="331.86" width="3" height="43.68" transform="translate(5.88 714.79) rotate(-77.15)"/><rect class="cls-5" x="403.28" y="238.93" width="43.68" height="3" transform="translate(-57.15 317.57) rotate(-38.58)"/><circle class="cls-19" cx="320.6" cy="93.57" r="74.82"/><path class="cls-11" d="m320.6,169.89c-42.09,0-76.33-34.24-76.33-76.32s34.24-76.32,76.33-76.32,76.32,34.24,76.32,76.32-34.24,76.32-76.32,76.32Zm0-149.65c-40.43,0-73.33,32.89-73.33,73.32s32.89,73.32,73.33,73.32,73.32-32.89,73.32-73.32-32.89-73.32-73.32-73.32Z"/><circle class="cls-19" cx="140.41" cy="180.22" r="74.82"/><path class="cls-11" d="m140.26,256.55c-17.21,0-33.79-5.78-47.44-16.66-15.94-12.71-25.97-30.87-28.26-51.13-2.28-20.26,3.46-40.19,16.17-56.13,26.24-32.9,74.36-38.32,107.26-12.08,32.9,26.24,38.32,74.36,12.08,107.26-12.71,15.94-30.87,25.97-51.13,28.26-2.91.33-5.81.49-8.69.49Zm.22-149.63c-21.57,0-42.94,9.44-57.4,27.58-12.21,15.31-17.73,34.46-15.54,53.93,2.19,19.46,11.83,36.91,27.15,49.12s34.46,17.73,53.93,15.54c19.46-2.19,36.91-11.83,49.12-27.15s17.73-34.46,15.54-53.93c-2.19-19.46-11.83-36.91-27.15-49.12-13.48-10.75-29.62-15.97-45.64-15.97Z"/><circle class="cls-19" cx="95.81" cy="375.12" r="74.82"/><path class="cls-11" d="m95.8,451.45c-34.81,0-66.34-24.01-74.4-59.35-9.37-41.03,16.4-82.03,57.43-91.39,41.04-9.37,82.03,16.4,91.4,57.43h0c9.37,41.03-16.4,82.03-57.43,91.39-5.69,1.3-11.39,1.92-16.99,1.92Zm.01-149.67c-5.39,0-10.85.6-16.32,1.85-19.09,4.36-35.35,15.89-45.77,32.48-10.42,16.58-13.76,36.23-9.4,55.33,9,39.42,48.39,64.16,87.8,55.17,39.42-9,64.16-48.39,55.17-87.8h0c-7.75-33.95-38.04-57.02-71.48-57.02Z"/><circle class="cls-19" cx="220.38" cy="531.51" r="74.82"/><path class="cls-11" d="m220.26,607.83c-11.09,0-22.35-2.43-33-7.55-18.37-8.85-32.19-24.31-38.93-43.56s-5.57-39.96,3.28-58.32c18.26-37.92,63.96-53.91,101.88-35.65,18.37,8.85,32.19,24.31,38.93,43.56,6.73,19.24,5.57,39.96-3.28,58.32-13.13,27.27-40.47,43.2-68.89,43.2Zm.24-149.64c-27.3,0-53.56,15.3-66.18,41.5-8.5,17.65-9.62,37.54-3.15,56.03,6.47,18.49,19.75,33.35,37.4,41.84,36.43,17.54,80.34,2.18,97.88-34.25,8.5-17.65,9.62-37.54,3.15-56.03-6.47-18.49-19.75-33.35-37.4-41.84-10.23-4.92-21.04-7.26-31.7-7.26Z"/><circle class="cls-19" cx="420.32" cy="531.62" r="74.82"/><path class="cls-11" d="m420.44,607.94c-28.42,0-55.75-15.93-68.89-43.2-18.26-37.92-2.27-83.62,35.65-101.88,37.92-18.26,83.62-2.27,101.88,35.65,8.85,18.37,10.01,39.08,3.28,58.32-6.73,19.24-20.56,34.71-38.93,43.56-10.64,5.12-21.9,7.55-33,7.55Zm-.18-149.68c-10.87,0-21.68,2.45-31.76,7.3-17.65,8.5-30.93,23.36-37.4,41.84s-5.35,38.39,3.15,56.03c17.54,36.43,61.45,51.79,97.88,34.25,17.65-8.5,30.93-23.36,37.4-41.85s5.35-38.38-3.15-56.03c-8.5-17.65-23.36-30.93-41.85-37.39-7.93-2.77-16.12-4.15-24.27-4.15Z"/><circle class="cls-19" cx="545.07" cy="375.37" r="74.82"/><path class="cls-11" d="m545.08,451.71c-5.61,0-11.3-.62-16.99-1.92-41.03-9.36-66.79-50.36-57.43-91.39,9.37-41.03,50.37-66.79,91.4-57.43,41.03,9.37,66.79,50.36,57.43,91.39-8.07,35.33-39.6,59.35-74.4,59.35Zm-.01-149.67c-33.44,0-63.73,23.07-71.48,57.02-4.36,19.09-1.02,38.74,9.4,55.33,10.42,16.58,26.67,28.12,45.77,32.48,39.42,8.99,78.8-15.75,87.8-55.17,9-39.42-15.75-78.8-55.17-87.8-5.47-1.25-10.94-1.85-16.32-1.85Z"/><circle class="cls-19" cx="500.69" cy="180.42" r="74.82"/><path class="cls-11" d="m500.77,256.71c-22.45,0-44.7-9.83-59.75-28.71-12.71-15.94-18.45-35.87-16.17-56.13,2.28-20.26,12.32-38.42,28.26-51.13,32.9-26.24,81.02-20.82,107.26,12.08,12.71,15.94,18.45,35.87,16.17,56.13-2.28,20.26-12.32,38.42-28.26,51.13-14.03,11.19-30.83,16.62-47.51,16.62Zm-.15-149.59c-16.03,0-32.17,5.22-45.64,15.97-15.31,12.21-24.95,29.66-27.15,49.12-2.19,19.46,3.32,38.61,15.54,53.93h0c25.21,31.61,71.43,36.82,103.04,11.61,15.31-12.21,24.95-29.66,27.15-49.12,2.19-19.46-3.32-38.61-15.54-53.93-14.46-18.13-35.84-27.58-57.4-27.58Z"/><path class="cls-17" d="m385.38,529.01c.21-.03.38-.08.51-.15.13-.07.21-.15.25-.25.04-.1.07-.23.07-.37v-9.27c0-.14-.02-.26-.07-.37-.04-.1-.13-.19-.25-.25-.13-.07-.29-.12-.51-.16s-.48-.06-.81-.07v-.21h5.28c.98,0,1.8.08,2.45.24.65.16,1.18.38,1.57.66.39.28.67.62.83,1.02.16.4.25.84.25,1.33,0,.46-.09.89-.26,1.28-.17.4-.46.75-.87,1.05-.4.3-.93.53-1.59.7-.65.17-1.46.25-2.42.25h-.87v3.79c0,.15.02.28.06.38s.12.19.24.25c.12.07.29.12.52.16.23.04.53.06.92.07v.2h-6.11v-.23c.33-.01.6-.03.81-.07Zm5.48-5.02c.32-.12.58-.31.77-.56.19-.25.32-.56.4-.94.08-.38.11-.82.11-1.33,0-.45-.04-.85-.12-1.22-.08-.37-.22-.68-.4-.94-.19-.26-.44-.46-.75-.6s-.7-.21-1.16-.21h-.75v5.98h.69c.49,0,.9-.06,1.22-.18Z"/><path class="cls-17" d="m396.97,528.96c.14-.09.2-.23.2-.42v-5.66c0-.25-.07-.44-.2-.58s-.44-.21-.91-.22v-.2l3.6-.2v1.54c.25-.5.58-.89.99-1.17.41-.28.84-.42,1.3-.42.51,0,.9.14,1.17.42s.4.63.4,1.05-.12.77-.36,1.04c-.24.27-.55.4-.93.4-.45,0-.79-.13-1.03-.39-.24-.26-.36-.56-.36-.88,0-.12.01-.25.04-.38.03-.13.06-.25.09-.36-.2.02-.42.13-.66.31-.25.19-.45.42-.61.7v4.99c0,.1.02.18.06.25.04.07.11.12.22.16.11.04.26.08.46.11.2.03.45.05.77.06v.2h-5.13v-.2c.47-.01.77-.06.91-.15Z"/><path class="cls-17" d="m405.49,528.41c-.7-.69-1.05-1.65-1.05-2.88,0-.61.1-1.16.29-1.64.19-.48.46-.9.81-1.24.35-.34.78-.6,1.28-.78.51-.18,1.07-.27,1.69-.27,1.29,0,2.28.34,2.99,1.02.71.68,1.06,1.63,1.06,2.85,0,.61-.1,1.16-.29,1.65-.19.49-.46.91-.81,1.25-.35.34-.77.61-1.28.79-.5.19-1.06.28-1.68.28-1.31,0-2.31-.34-3.02-1.03Zm3.74.45c.17-.17.3-.41.4-.73s.17-.69.2-1.14c.04-.44.06-.94.06-1.5s-.02-1.05-.07-1.5c-.05-.44-.13-.82-.25-1.13-.11-.31-.27-.55-.46-.71s-.42-.25-.69-.25-.5.08-.67.25-.31.4-.41.71c-.1.31-.16.69-.2,1.13-.03.44-.05.94-.05,1.5s.02,1.05.07,1.5c.05.44.13.82.25,1.14.11.32.26.56.45.73.19.17.42.25.7.25s.49-.08.66-.25Z"/><path class="cls-17" d="m414.37,532.05c.13-.09.2-.23.2-.42v-8.75c0-.25-.07-.44-.2-.58s-.44-.21-.91-.22v-.2l3.6-.2v.96c.37-.32.74-.57,1.12-.77.38-.2.8-.29,1.27-.29s.92.09,1.3.28c.38.19.69.44.95.78.26.33.45.74.59,1.21.14.47.2,1.01.2,1.59,0,.54-.08,1.06-.23,1.54-.15.48-.38.91-.67,1.27-.29.36-.66.65-1.1.86-.44.21-.94.32-1.5.32-.38,0-.72-.03-1.03-.08-.31-.05-.59-.14-.87-.26v2.53c0,.1.02.18.06.25.04.07.11.12.23.16.11.04.27.08.47.11.2.03.45.05.77.06v.2h-5.13v-.2c.47-.01.77-.06.9-.15Zm5.09-3.81c.25-.58.37-1.48.37-2.7,0-.42-.03-.83-.08-1.2-.05-.38-.14-.71-.26-.99-.12-.28-.28-.51-.47-.67-.2-.16-.44-.25-.74-.25-.36,0-.76.15-1.19.44v5.28c.19.36.4.61.63.74.23.14.49.2.76.2.41,0,.74-.29.99-.87Z"/><path class="cls-17" d="m426.12,529.19c-.49-.16-.91-.41-1.27-.73-.35-.32-.63-.72-.83-1.19-.2-.47-.29-1.02-.29-1.64s.1-1.22.31-1.72c.21-.5.49-.92.86-1.27.37-.34.79-.6,1.28-.78s1.01-.27,1.56-.27c.59,0,1.11.09,1.55.27.45.18.82.44,1.11.77.29.33.51.73.65,1.19s.2.98.16,1.54h-4.84v.26c0,1.04.2,1.81.61,2.33s1.01.78,1.79.78c.49,0,.91-.11,1.25-.34.34-.23.67-.55.97-.96l.18.11c-.38.6-.85,1.07-1.4,1.4-.55.33-1.23.5-2.04.5-.6,0-1.14-.08-1.63-.25Zm.6-6.44c-.19.56-.3,1.32-.34,2.29h2.32c.11-.96.07-1.72-.11-2.28s-.5-.84-.96-.84c-.42,0-.73.28-.92.83Z"/><path class="cls-17" d="m433.28,528.96c.14-.09.2-.23.2-.42v-5.66c0-.25-.07-.44-.2-.58s-.44-.21-.91-.22v-.2l3.6-.2v1.54c.25-.5.58-.89.99-1.17.41-.28.84-.42,1.3-.42.51,0,.9.14,1.17.42.27.28.4.63.4,1.05s-.12.77-.36,1.04c-.24.27-.55.4-.93.4-.45,0-.79-.13-1.03-.39-.24-.26-.36-.56-.36-.88,0-.12.01-.25.04-.38s.06-.25.09-.36c-.2.02-.42.13-.66.31-.25.19-.45.42-.61.7v4.99c0,.1.02.18.06.25s.11.12.22.16c.11.04.26.08.46.11.2.03.45.05.77.06v.2h-5.13v-.2c.47-.01.77-.06.91-.15Z"/><path class="cls-17" d="m443.23,529.31c-.3-.08-.56-.22-.78-.4-.22-.19-.4-.43-.53-.73-.13-.3-.2-.67-.2-1.12v-4.66h-1.42v-.31l1.45-.29v-2.08l2.48-.69v2.8h2.3v.54h-2.3v4.84c0,.46.07.8.2,1.02.14.22.39.34.76.34.26,0,.49-.08.68-.25.19-.16.36-.43.51-.8l.21.1c-.22.62-.51,1.08-.87,1.37-.37.29-.88.44-1.54.44-.34,0-.66-.04-.96-.12Z"/><path class="cls-16" d="m447.85,522.46c-.08-.11-.16-.21-.26-.28s-.22-.13-.35-.16c-.14-.04-.3-.07-.5-.11v-.2h4.81v.2c-.44.05-.72.13-.84.24-.13.1-.13.29,0,.56l1.86,4.22,1.37-3.48c.2-.49.21-.85.05-1.07-.16-.22-.54-.38-1.13-.47v-.2h3.29v.2c-.36.04-.67.15-.94.32-.27.17-.48.44-.65.83l-2.98,7.13c-.19.46-.38.84-.6,1.14-.21.31-.43.55-.65.74-.22.19-.44.32-.68.39-.23.08-.47.11-.71.11-.52,0-.93-.12-1.22-.35-.29-.23-.43-.57-.43-1.01,0-.14.03-.28.08-.42.05-.14.13-.27.23-.38.1-.11.22-.2.37-.27.15-.07.31-.11.5-.11.32,0,.58.11.8.33s.33.5.33.83c0,.24-.05.44-.14.61-.09.17-.19.3-.3.4.42-.03.81-.22,1.14-.56.34-.34.66-.91.98-1.71l.1-.23-3.29-6.8c-.09-.19-.17-.34-.25-.45Z"/><path class="cls-17" d="m368.71,545.2l-.02-7.44-2.75,6.29h-1.9l-2.75-6.29v7.44h-2.6v-11.46h3.19l3.11,6.82,3.11-6.82h3.17v11.46h-2.57Z"/><path class="cls-17" d="m376.18,543.09l-.83,2.11h-2.99l4.94-11.44h2.99l4.82,11.44h-3.11l-.82-2.11h-5Zm2.52-6.44l-1.67,4.23h3.3l-1.63-4.23Z"/><path class="cls-17" d="m394.16,545.2l-5.26-7.05v7.05h-2.73v-11.44h2.57l5.28,7.06v-7.06h2.71v11.44h-2.57Z"/><path class="cls-17" d="m401.62,543.09l-.83,2.11h-2.99l4.94-11.44h2.99l4.82,11.44h-3.11l-.82-2.11h-5Zm2.52-6.44l-1.67,4.23h3.3l-1.63-4.23Z"/><path class="cls-17" d="m421.41,539.38v4.46c-1.23.87-3.15,1.49-4.76,1.49-3.48,0-6.11-2.52-6.11-5.85s2.7-5.82,6.31-5.82c1.7,0,3.5.65,4.68,1.7l-1.63,1.98c-.83-.77-1.99-1.24-3.06-1.24-1.88,0-3.32,1.47-3.32,3.38s1.45,3.42,3.35,3.42c.59,0,1.34-.21,2.03-.56v-2.96h2.52Z"/><path class="cls-17" d="m426.35,536.04v2.27h5.46v2.29h-5.46v2.3h6.23v2.29h-9.14v-11.44h8.96v2.29h-6.05Z"/><path class="cls-17" d="m444.46,545.2l-.02-7.44-2.75,6.29h-1.9l-2.75-6.29v7.44h-2.6v-11.46h3.19l3.11,6.82,3.11-6.82h3.17v11.46h-2.57Z"/><path class="cls-17" d="m452.24,536.04v2.27h5.46v2.29h-5.46v2.3h6.23v2.29h-9.14v-11.44h8.96v2.29h-6.05Z"/><path class="cls-17" d="m468.34,545.2l-5.26-7.05v7.05h-2.73v-11.44h2.57l5.28,7.06v-7.06h2.71v11.44h-2.57Z"/><path class="cls-17" d="m478.49,536.09v9.11h-2.91v-9.11h-3.42v-2.35h9.78v2.35h-3.45Z"/><path class="cls-20" d="m101.91,164c0,3.93-2.84,6.3-7.54,6.3h-4.47v5.48h-2.58v-18.08h7.05c4.7,0,7.54,2.38,7.54,6.3Zm-2.58,0c0-2.58-1.73-4.05-5.04-4.05h-4.39v8.11h4.39c3.31,0,5.04-1.47,5.04-4.05Z"/><path class="cls-20" d="m111.63,161.96v2.4c-.21-.03-.39-.03-.57-.03-2.66,0-4.31,1.63-4.31,4.62v6.82h-2.48v-13.69h2.38v2.3c.88-1.6,2.58-2.43,4.98-2.43Z"/><path class="cls-20" d="m112.37,168.93c0-4.08,3.02-6.97,7.13-6.97s7.1,2.89,7.1,6.97-3,7-7.1,7-7.13-2.92-7.13-7Zm11.73,0c0-2.92-1.96-4.8-4.6-4.8s-4.62,1.89-4.62,4.8,1.99,4.83,4.62,4.83,4.6-1.91,4.6-4.83Z"/><path class="cls-20" d="m143.35,168.93c0,4.21-2.92,7-6.92,7-1.94,0-3.64-.75-4.78-2.22v7.08h-2.48v-18.7h2.38v2.17c1.11-1.52,2.87-2.3,4.88-2.3,4,0,6.92,2.79,6.92,6.97Zm-2.51,0c0-2.89-1.99-4.8-4.62-4.8s-4.6,1.91-4.6,4.8,1.99,4.83,4.6,4.83,4.62-1.91,4.62-4.83Z"/><path class="cls-20" d="m158.51,169.76h-11.11c.31,2.4,2.25,4,4.96,4,1.6,0,2.94-.54,3.95-1.65l1.37,1.6c-1.24,1.45-3.13,2.22-5.4,2.22-4.42,0-7.36-2.92-7.36-7s2.92-6.97,6.87-6.97,6.77,2.84,6.77,7.05c0,.21-.03.52-.05.75Zm-11.11-1.78h8.78c-.26-2.3-1.99-3.93-4.39-3.93s-4.13,1.6-4.39,3.93Z"/><path class="cls-20" d="m168.44,161.96v2.4c-.21-.03-.39-.03-.57-.03-2.66,0-4.31,1.63-4.31,4.62v6.82h-2.48v-13.69h2.38v2.3c.88-1.6,2.58-2.43,4.98-2.43Z"/><path class="cls-20" d="m179.24,174.97c-.75.65-1.89.96-3,.96-2.76,0-4.34-1.52-4.34-4.29v-7.52h-2.32v-2.04h2.32v-3h2.48v3h3.93v2.04h-3.93v7.41c0,1.47.77,2.3,2.14,2.3.72,0,1.42-.23,1.94-.65l.77,1.78Z"/><path class="cls-20" d="m194.09,162.09l-6.64,15.06c-1.21,2.89-2.79,3.8-4.88,3.8-1.32,0-2.66-.44-3.51-1.27l1.06-1.86c.67.65,1.52,1.01,2.45,1.01,1.19,0,1.94-.54,2.61-2.12l.44-.96-6.04-13.66h2.58l4.78,10.95,4.73-10.95h2.43Z"/><path class="cls-20" d="m96.72,183.6v14.39h-4.6v-14.39h-5.4v-3.72h15.44v3.72h-5.45Z"/><path class="cls-20" d="m120.76,190.39c0,4.78-3.18,7.8-8.24,7.8s-8.34-3.02-8.34-7.8v-10.49h4.6v10.49c0,2.45,1.58,3.95,3.77,3.95s3.64-1.5,3.64-3.95v-10.49h4.57v10.49Z"/><path class="cls-20" d="m131,192.9h-3.62v5.09h-4.6v-18.08h8.08c4.78,0,7.52,2.27,7.52,6.3,0,2.76-1.16,4.75-3.28,5.81l3.8,5.97h-5.22l-2.69-5.09Zm-.13-3.62c1.99,0,3.15-1.01,3.15-2.92s-1.16-2.84-3.15-2.84h-3.49v5.76h3.49Z"/><path class="cls-20" d="m147.88,190.88l-2.4,2.66v4.44h-4.6v-18.08h4.6v7.83l6.92-7.83h5.32l-6.72,7.49,7.15,10.59h-5.5l-4.78-7.1Z"/><path class="cls-20" d="m163.97,183.52v3.59h8.63v3.62h-8.63v3.64h9.84v3.62h-14.44v-18.08h14.15v3.62h-9.56Z"/><path class="cls-20" d="m185.69,197.99h-4.57v-5.71l-6.69-12.37h4.6l4.36,7.88,4.26-7.88h4.6l-6.56,12.24v5.84Z"/><path class="cls-12" d="m292.84,102.36v7.63h-.98v-7.63h-2.79v-.94h6.58v.94h-2.81Z"/><path class="cls-12" d="m306.34,106.46c0,2.23-1.35,3.58-3.59,3.58s-3.61-1.35-3.61-3.58v-5.05h.98v5.05c0,1.67,1,2.63,2.63,2.63s2.61-.97,2.61-2.63v-5.05h.98v5.05Z"/><path class="cls-12" d="m314.81,107.26c-.18.01-.38.02-.58.02h-2.28v2.71h-.98v-8.58h3.26c2.14,0,3.38,1.05,3.38,2.88,0,1.42-.69,2.38-1.92,2.78l2.01,2.92h-1.12l-1.78-2.73Zm-.58-.92c1.56,0,2.44-.69,2.44-2.02s-.88-1.96-2.44-1.96h-2.28v3.98h2.28Z"/><path class="cls-12" d="m324.6,105.92l-1.67,1.83v2.24h-.98v-8.58h.98v4.94l4.61-4.94h1.16l-3.39,3.73,3.65,4.85h-1.2l-3.16-4.07Z"/><path class="cls-12" d="m333.59,102.36v2.82h4.33v.94h-4.33v2.94h5v.93h-5.98v-8.58h5.82v.94h-4.84Z"/><path class="cls-12" d="m346.07,109.99h-.97v-2.9l-3.32-5.67h1.02l2.78,4.47,2.74-4.47h1l-3.26,5.64v2.94Z"/><path class="cls-12" d="m260.17,93.27c.31-.07.55-.16.73-.29.18-.12.3-.27.37-.45.07-.18.11-.37.11-.59v-11.87c0-.44-.16-.78-.48-1.03s-.96-.39-1.91-.42v-.26h6.88c1.36,0,2.56.19,3.59.56,1.03.37,1.9.89,2.59,1.55.7.66,1.22,1.44,1.57,2.34.35.9.53,1.88.53,2.93s-.15,2-.46,2.96c-.31.96-.79,1.81-1.44,2.54-.65.73-1.48,1.32-2.49,1.77-1.01.45-2.22.67-3.63.67h-7.14v-.29c.48-.01.88-.06,1.19-.12Zm8.02-.36c.75-.23,1.34-.63,1.79-1.2.45-.56.77-1.32.97-2.26.2-.94.3-2.12.3-3.53s-.12-2.59-.36-3.52c-.24-.92-.6-1.66-1.08-2.2-.48-.54-1.07-.92-1.79-1.12-.72-.21-1.56-.31-2.53-.31h-1.54v14.48h1.47c1.1,0,2.02-.12,2.77-.35Z"/><path class="cls-12" d="m277.64,93.27c.31-.07.55-.16.73-.29.18-.12.3-.27.37-.45.07-.18.11-.37.11-.59v-11.87c0-.44-.16-.78-.48-1.03s-.96-.39-1.91-.42v-.26h12.74l.07,4.94-.31.04c-.32-.78-.63-1.45-.93-2.03-.3-.58-.64-1.05-1.01-1.43-.37-.37-.79-.65-1.26-.84-.47-.18-1.03-.27-1.69-.27h-2.64v6.75h1.19c.45,0,.86-.05,1.21-.14.35-.1.67-.26.94-.48.28-.23.52-.53.71-.92.2-.39.37-.88.52-1.46h.29v6.44h-.29c-.15-.59-.32-1.07-.52-1.45-.2-.38-.44-.69-.71-.92-.28-.23-.59-.4-.94-.49-.35-.1-.75-.14-1.21-.14h-1.19v7.32h2.59c.76,0,1.42-.1,1.98-.29s1.04-.48,1.46-.88c.42-.4.79-.9,1.13-1.51.34-.61.67-1.33,1.01-2.16l.31.02-.11,5.23h-13.34v-.29c.48-.01.88-.06,1.19-.12Z"/><path class="cls-12" d="m293.15,88.58c.32.73.67,1.4,1.03,2.01.37.61.76,1.13,1.19,1.57.42.44.89.78,1.38,1.02.5.24,1.04.36,1.63.36.54,0,1.01-.08,1.42-.25.4-.17.74-.38,1.01-.65.27-.26.47-.56.6-.9.13-.34.2-.68.2-1.03,0-.48-.08-.9-.25-1.25-.17-.35-.42-.67-.75-.94-.33-.28-.75-.53-1.26-.76-.51-.23-1.11-.46-1.78-.69-.56-.19-1.1-.39-1.64-.59-.53-.21-1.01-.47-1.43-.78-.42-.31-.76-.71-1.02-1.18-.26-.47-.4-1.05-.4-1.76s.13-1.37.4-1.96c.26-.59.63-1.08,1.09-1.48.46-.4,1.01-.71,1.64-.93s1.32-.33,2.07-.33c.66,0,1.27.08,1.85.23.57.15,1.05.33,1.45.52l.79-.88h.26v4.9h-.31c-.62-1.46-1.28-2.56-1.99-3.27-.71-.72-1.51-1.08-2.41-1.08-.38,0-.74.06-1.09.18-.34.12-.65.29-.91.53s-.47.52-.63.85c-.15.33-.23.71-.23,1.15,0,.47.09.87.26,1.21s.43.64.77.9c.34.26.75.5,1.24.7.49.21,1.05.41,1.68.62.53.18,1.05.37,1.56.57.51.21.97.47,1.38.79s.74.72,1,1.19c.26.47.38,1.06.38,1.78,0,.6-.1,1.2-.29,1.8-.19.6-.49,1.14-.91,1.63-.42.48-.96.88-1.62,1.18-.66.3-1.46.45-2.42.45-.63,0-1.28-.1-1.96-.29-.67-.19-1.25-.42-1.74-.7l-1.32,1.08h-.26v-5.49h.31Z"/><path class="cls-12" d="m307.11,93.27c.32-.07.58-.16.76-.29.18-.12.31-.27.37-.45.07-.18.1-.37.1-.59v-11.87c0-.22-.03-.42-.1-.59-.07-.18-.19-.32-.37-.44-.18-.12-.44-.21-.76-.29-.32-.07-.73-.12-1.23-.13v-.26h7.47v.26c-.5.01-.91.06-1.23.13-.32.07-.58.17-.76.29-.18.12-.31.26-.37.44-.07.18-.1.37-.1.59v11.87c0,.22.03.42.1.59.07.18.19.33.37.45.18.12.44.22.76.29.32.07.73.11,1.23.12v.29h-7.47v-.29c.5-.01.91-.06,1.23-.12Z"/><path class="cls-12" d="m320.79,93.54c-.96-.34-1.81-.85-2.55-1.53-.74-.67-1.33-1.51-1.77-2.51-.44-1-.66-2.15-.66-3.45,0-1.2.22-2.3.67-3.28.45-.99,1.04-1.84,1.78-2.55.74-.71,1.59-1.26,2.55-1.65.96-.39,1.96-.58,3-.58.86,0,1.62.08,2.25.25.64.17,1.21.38,1.72.65l.99-1.03h.24v5.08h-.31c-.62-1.46-1.34-2.59-2.19-3.36-.84-.78-1.81-1.16-2.91-1.16-.62,0-1.22.14-1.8.41-.59.27-1.11.71-1.56,1.32-.45.61-.82,1.4-1.1,2.36-.28.97-.42,2.14-.42,3.52s.15,2.55.44,3.52c.29.97.68,1.75,1.15,2.36.48.61,1.01,1.05,1.62,1.33.6.28,1.22.42,1.85.42,1.26,0,2.26-.31,2.99-.92v-4.15c0-.45-.17-.82-.51-1.1-.34-.28-.98-.43-1.93-.46v-.29h6.66v.29c-.69.03-1.15.15-1.37.37-.23.22-.34.62-.34,1.19v4.04c-.75.47-1.61.83-2.6,1.08-.99.25-1.95.37-2.89.37-1.04,0-2.04-.17-3-.52Z"/><path class="cls-12" d="m335.89,80.85v9.16c0,.54.04,1.01.12,1.4.08.39.23.72.44.99.21.27.5.49.87.65.37.16.83.28,1.38.35v.29h-6.02v-.29c.51-.09.94-.21,1.29-.37.34-.16.62-.37.82-.64s.35-.59.44-.98c.09-.39.13-.85.13-1.4v-8.83c0-.34-.05-.66-.15-.96-.1-.3-.26-.56-.48-.79-.22-.23-.5-.41-.84-.55-.34-.14-.74-.22-1.21-.25v-.26h4.68l8.72,11.6h.02v-7.95c0-.54-.05-1.01-.15-1.4-.1-.39-.27-.72-.49-.99-.23-.27-.53-.49-.91-.65-.38-.16-.84-.28-1.38-.35v-.26h6.04v.26c-.51.09-.94.21-1.27.37-.34.16-.6.37-.79.64-.19.26-.32.59-.4.98-.07.39-.11.85-.11,1.4v12h-.73l-10-13.16h-.02Z"/><path class="cls-12" d="m351.95,93.27c.31-.07.55-.16.73-.29.18-.12.3-.27.37-.45.07-.18.11-.37.11-.59v-11.87c0-.44-.16-.78-.48-1.03-.32-.25-.96-.39-1.91-.42v-.26h12.74l.07,4.94-.31.04c-.32-.78-.63-1.45-.93-2.03-.3-.58-.64-1.05-1.01-1.43-.37-.37-.79-.65-1.26-.84-.47-.18-1.03-.27-1.69-.27h-2.64v6.75h1.19c.45,0,.86-.05,1.21-.14.35-.1.67-.26.94-.48.28-.23.52-.53.71-.92.2-.39.37-.88.52-1.46h.29v6.44h-.29c-.15-.59-.32-1.07-.52-1.45-.2-.38-.44-.69-.71-.92-.28-.23-.59-.4-.94-.49-.35-.1-.75-.14-1.21-.14h-1.19v7.32h2.59c.76,0,1.42-.1,1.98-.29s1.04-.48,1.46-.88c.42-.4.79-.9,1.13-1.51.34-.61.67-1.33,1.01-2.16l.31.02-.11,5.23h-13.34v-.29c.48-.01.88-.06,1.19-.12Z"/><path class="cls-12" d="m372.1,93c.31.23.92.37,1.85.4v.29h-7.27v-.29c.48-.01.88-.06,1.19-.12.31-.07.55-.16.73-.29.18-.12.3-.27.37-.45.07-.18.11-.37.11-.59v-11.87c0-.44-.16-.78-.48-1.03s-.96-.39-1.91-.42v-.26h6.92c1.13,0,2.09.1,2.88.29.79.19,1.44.45,1.93.79.5.34.86.73,1.09,1.19.23.45.34.94.34,1.45,0,.95-.36,1.77-1.07,2.46-.71.69-1.91,1.16-3.59,1.41v.07c.81.03,1.47.14,2,.33s.95.45,1.26.77c.32.32.55.71.71,1.16.16.45.28.96.35,1.52l.15,1.25c.07.48.16.87.26,1.16s.24.52.42.68.41.27.71.32c.3.05.68.08,1.15.08v.26c-.38.09-.76.15-1.14.19-.38.04-.75.05-1.12.05-.6,0-1.08-.05-1.45-.15-.37-.1-.66-.27-.88-.49-.22-.23-.38-.52-.47-.87-.1-.35-.17-.78-.23-1.27l-.22-2.02c-.06-.56-.15-1.01-.27-1.37-.12-.36-.31-.64-.56-.86-.25-.21-.58-.36-.99-.44-.41-.08-.93-.12-1.56-.12h-1.67v5.76c0,.47.15.82.46,1.05Zm3.18-7.46c.46-.15.82-.38,1.09-.68.26-.3.44-.67.54-1.12.1-.45.14-.96.14-1.55,0-.53-.06-1-.19-1.42-.12-.42-.33-.77-.63-1.07-.29-.29-.68-.52-1.18-.68-.49-.16-1.11-.24-1.86-.24h-1.56v6.99h1.85c.73,0,1.33-.08,1.79-.23Z"/><path class="cls-13" d="m185.91,528.87v-17.93h3.02v17.93h-3.02Z"/><path class="cls-13" d="m205.86,520.39v8.48h-2.95v-7.66c0-2.05-1.23-3.3-3.28-3.3-2.25.03-3.66,1.59-3.87,3.71v7.25h-2.95v-13.63h2.95v2.61c.97-1.9,2.72-2.71,5.02-2.71,3.18,0,5.07,2,5.07,5.25Z"/><path class="cls-13" d="m218,516.5l-1.08,2.18c-1.2-.74-2.72-1.2-3.92-1.2s-2,.38-2,1.36c0,2.51,7.25,1.15,7.22,6.1,0,2.79-2.48,4.05-5.23,4.05-2,0-4.12-.67-5.48-1.9l1.05-2.1c1.18,1.05,3.07,1.69,4.56,1.69,1.25,0,2.23-.44,2.23-1.46,0-2.79-7.17-1.23-7.15-6.15,0-2.77,2.41-3.94,5.02-3.94,1.72,0,3.53.51,4.76,1.38Z"/><path class="cls-13" d="m223.74,511.35c0,1.02-.74,1.77-1.72,1.77s-1.72-.74-1.72-1.77.74-1.79,1.72-1.79,1.72.74,1.72,1.79Zm-3.18,17.52v-13.63h2.92v13.63h-2.92Z"/><path class="cls-13" d="m240.18,528.87h-2.95v-2.33c-.97,1.59-2.61,2.46-4.79,2.46-3.92,0-6.53-2.84-6.53-6.99s2.64-6.89,6.48-6.89c2.2,0,3.84.9,4.84,2.48v-7.74h2.95v19Zm-2.95-6.76c0-2.64-1.72-4.48-4.17-4.48s-4.17,1.87-4.2,4.48c.03,2.59,1.72,4.43,4.2,4.43s4.17-1.84,4.17-4.43Z"/><path class="cls-13" d="m256.01,523.19h-10.3c.46,2.1,2.07,3.41,4.23,3.41,1.49,0,2.84-.56,3.84-1.59l1.56,1.66c-1.33,1.46-3.28,2.31-5.63,2.31-4.2,0-6.97-2.79-6.97-6.89s2.84-6.92,6.89-6.94c4.79,0,6.74,3.12,6.38,8.04Zm-2.56-2.15c-.1-2.2-1.56-3.53-3.79-3.53s-3.66,1.36-4,3.53h7.79Z"/><path class="cls-13" d="m176.61,535.95v14.27h-4.56v-14.27h-5.35v-3.69h15.32v3.69h-5.4Z"/><path class="cls-13" d="m200.1,542.68c0,4.74-3.15,7.74-8.17,7.74s-8.27-3-8.27-7.74v-10.4h4.56v10.4c0,2.43,1.56,3.92,3.74,3.92s3.61-1.49,3.61-3.92v-10.4h4.53v10.4Z"/><path class="cls-13" d="m211.52,545.17h-3.59v5.05h-4.56v-17.93h8.02c4.74,0,7.45,2.25,7.45,6.25,0,2.74-1.15,4.71-3.25,5.76l3.77,5.92h-5.17l-2.66-5.05Zm-.13-3.59c1.97,0,3.12-1,3.12-2.89s-1.15-2.82-3.12-2.82h-3.46v5.71h3.46Z"/><path class="cls-13" d="m228.86,543.17l-2.38,2.64v4.41h-4.56v-17.93h4.56v7.76l6.86-7.76h5.28l-6.66,7.43,7.09,10.5h-5.46l-4.74-7.04Z"/><path class="cls-13" d="m245.61,535.87v3.56h8.55v3.59h-8.55v3.61h9.76v3.59h-14.32v-17.93h14.04v3.59h-9.48Z"/><path class="cls-13" d="m267.56,550.21h-4.53v-5.66l-6.63-12.27h4.56l4.33,7.81,4.23-7.81h4.56l-6.51,12.14v5.79Z"/><path class="cls-14" d="m450.18,170.3h4.47c4.7,0,7.54-2.38,7.54-6.3s-2.84-6.3-7.54-6.3h-7.05v18.08h2.58v-5.48h0Zm0-10.36h4.39c3.31,0,5.04,1.47,5.04,4.05s-1.73,4.05-5.04,4.05h-4.39v-8.11Z"/><path class="cls-14" d="m467.03,168.96c0-3,1.65-4.62,4.31-4.62.18,0,.36,0,.57.03v-2.4c-2.4,0-4.11.83-4.98,2.43v-2.3h-2.38v13.69h2.48v-6.82h0Z"/><path class="cls-14" d="m479.77,175.93c4.11,0,7.1-2.92,7.1-7s-3-6.97-7.1-6.97-7.13,2.89-7.13,6.97,3.02,7,7.13,7Zm0-11.8c2.63,0,4.6,1.89,4.6,4.8s-1.96,4.83-4.6,4.83-4.62-1.91-4.62-4.83,1.99-4.8,4.62-4.8Z"/><path class="cls-14" d="m512.07,161.96c-3.95,0-6.87,2.92-6.87,6.97s2.94,7,7.36,7c2.27,0,4.16-.78,5.4-2.22l-1.37-1.6c-1.01,1.11-2.35,1.65-3.95,1.65-2.71,0-4.65-1.6-4.96-4h11.11c.03-.23.05-.54.05-.75,0-4.21-2.82-7.05-6.77-7.05h0Zm-4.39,6.02c.26-2.32,2.01-3.93,4.39-3.93s4.13,1.63,4.39,3.93h-8.78Z"/><path class="cls-14" d="m523.84,168.96c0-3,1.65-4.62,4.31-4.62.18,0,.36,0,.57.03v-2.4c-2.4,0-4.11.83-4.98,2.43v-2.3h-2.38v13.69h2.48v-6.82Z"/><path class="cls-14" d="m532.18,171.64c0,2.76,1.58,4.29,4.34,4.29,1.11,0,2.25-.31,3-.96l-.78-1.78c-.52.41-1.21.65-1.94.65-1.37,0-2.14-.83-2.14-2.3v-7.41h3.93v-2.04h-3.93v-3h-2.48v3h-2.32v2.04h2.32v7.52h0Z"/><path class="cls-14" d="m545.46,176.7c-.67,1.58-1.42,2.12-2.61,2.12-.93,0-1.78-.36-2.45-1.01l-1.06,1.86c.85.83,2.2,1.27,3.51,1.27,2.09,0,3.67-.9,4.88-3.8l6.64-15.06h-2.43l-4.73,10.95-4.78-10.95h-2.58l6.04,13.66-.44.96h0Z"/><polygon class="cls-14" points="447.01 183.6 452.41 183.6 452.41 197.99 457 197.99 457 183.6 462.45 183.6 462.45 179.88 447.01 179.88 447.01 183.6"/><path class="cls-14" d="m476.47,190.39c0,2.45-1.47,3.95-3.64,3.95s-3.77-1.5-3.77-3.95v-10.49h-4.6v10.49c0,4.78,3.25,7.8,8.34,7.8s8.24-3.02,8.24-7.8v-10.49h-4.57v10.49h0Z"/><path class="cls-14" d="m498.66,186.21c0-3.8-2.44-6.04-6.73-6.28v-6.22c1.14,1.47,2.84,2.22,4.78,2.22,4,0,6.92-2.79,6.92-7s-2.92-6.97-6.92-6.97c-2.01,0-3.77.78-4.88,2.3v-2.17h-2.38v17.82h-6.39v18.08h4.6v-5.09h3.62l2.69,5.09h5.22l-3.8-5.97c2.12-1.06,3.28-3.05,3.28-5.81h0Zm-2.16-22.08c2.63,0,4.62,1.91,4.62,4.8s-1.99,4.83-4.62,4.83-4.6-1.91-4.6-4.83,1.99-4.8,4.6-4.8h0Zm-5.35,25.16h-3.49v-5.76h3.49c1.99,0,3.15.96,3.15,2.84s-1.16,2.92-3.15,2.92Z"/><polygon class="cls-14" points="518 179.91 512.68 179.91 505.76 187.73 505.76 179.91 501.16 179.91 501.16 197.99 505.76 197.99 505.76 193.54 508.16 190.88 512.94 197.99 518.44 197.99 511.29 187.4 518 179.91"/><polygon class="cls-14" points="524.25 190.73 532.88 190.73 532.88 187.11 524.25 187.11 524.25 183.52 533.81 183.52 533.81 179.91 519.65 179.91 519.65 197.99 534.09 197.99 534.09 194.37 524.25 194.37 524.25 190.73"/><polygon class="cls-14" points="543.67 187.78 539.31 179.91 534.71 179.91 541.4 192.28 541.4 197.99 545.97 197.99 545.97 192.15 552.53 179.91 547.93 179.91 543.67 187.78"/><g class="cls-24"><path class="cls-14" d="m479.17,209.16h1.75v7.94h4.92v1.48h-6.67v-9.42Z"/></g><g class="cls-24"><path class="cls-14" d="m494.3,217.11v1.47h-7.06v-9.42h6.88v1.47h-5.13v2.45h4.55v1.44h-4.55v2.6h5.32Z"/></g><g class="cls-24"><path class="cls-14" d="m502.64,213.76h1.66v3.75c-.98.79-2.35,1.2-3.69,1.2-2.92,0-5.07-2.03-5.07-4.84s2.15-4.84,5.1-4.84c1.57,0,2.89.52,3.78,1.53l-1.1,1.08c-.74-.74-1.59-1.08-2.6-1.08-2,0-3.42,1.36-3.42,3.31s1.41,3.31,3.4,3.31c.67,0,1.33-.13,1.94-.48v-2.93Z"/><path class="cls-14" d="m512.71,216.4h-4.71l-.93,2.18h-1.8l4.24-9.42h1.72l4.25,9.42h-1.83l-.94-2.18Zm-.58-1.37l-1.78-4.12-1.76,4.12h3.54Z"/><path class="cls-14" d="m516.68,209.16h1.75v7.94h4.92v1.48h-6.67v-9.42Z"/></g><path class="cls-19" d="m228.04,80.07c.09-.63.28-1.2.57-1.7s.64-.91,1.06-1.24c.42-.33.89-.56,1.41-.69.52-.13,1.07-.16,1.64-.07h.02c.57.09,1.09.27,1.55.56.46.28.85.64,1.15,1.08s.52.94.65,1.5c.13.56.15,1.16.05,1.79l-.45,3.02-8.11-1.22.45-3.02Zm6.57,2.62l.24-1.6c.06-.42.05-.82-.03-1.19-.08-.37-.23-.69-.43-.97-.21-.28-.47-.51-.78-.7-.32-.19-.67-.31-1.06-.37h-.02c-.39-.06-.77-.05-1.13.03-.36.08-.68.23-.96.44-.28.21-.52.47-.71.8-.19.33-.32.7-.38,1.13l-.24,1.6,5.51.83Z"/><path class="cls-19" d="m230.67,67.57l1.25.31-1.13,4.5,2.07.52,1-3.99,1.26.32-1,3.98,2.12.53,1.14-4.55,1.25.31-1.5,5.95-7.95-2,1.48-5.89Z"/><path class="cls-19" d="m231.66,64.44l6.77-.21-5.11-4.43.52-1.47,6.64,5.97-.43,1.21-8.92.42.54-1.5Z"/><path class="cls-19" d="m237.23,51l1.17.55-1.97,4.2,1.93.91,1.75-3.72,1.18.55-1.75,3.72,1.98.93,2-4.25,1.17.55-2.61,5.56-7.42-3.48,2.58-5.5Z"/><path class="cls-19" d="m239.05,47.72l5.96,3.45,2.16-3.73,1.13.66-2.88,4.97-7.09-4.11.72-1.25Z"/><path class="cls-19" d="m249.8,45.53c-.48.3-.99.49-1.52.57-.53.08-1.06.06-1.6-.06s-1.04-.35-1.52-.69h-.02c-.47-.35-.85-.75-1.15-1.22-.3-.47-.49-.97-.58-1.5-.09-.54-.08-1.08.04-1.64s.36-1.09.73-1.61c.37-.52.79-.92,1.28-1.22.48-.3.99-.49,1.52-.57.53-.08,1.06-.07,1.6.06s1.04.35,1.52.69h.02c.47.35.85.75,1.15,1.22.3.47.49.97.58,1.5.09.54.08,1.08-.04,1.64s-.36,1.09-.73,1.61c-.37.52-.79.92-1.28,1.22Zm.66-3.06c.07-.37.07-.72,0-1.07s-.21-.68-.42-.99c-.21-.32-.47-.59-.8-.82h-.02c-.32-.24-.67-.41-1.04-.5-.37-.09-.73-.11-1.09-.07-.36.05-.7.17-1.02.36-.32.19-.6.45-.84.79-.23.33-.39.68-.46,1.04-.07.37-.07.72,0,1.07.07.35.21.68.42.99.21.31.47.59.8.82h.02c.32.24.67.41,1.04.5.37.09.73.11,1.09.07.36-.05.7-.17,1.02-.36.32-.19.6-.45.84-.78.23-.33.39-.68.46-1.04Z"/><path class="cls-19" d="m250.42,31.73c.31-.36.65-.64,1-.85.35-.21.71-.33,1.07-.37.36-.04.71,0,1.06.1.35.11.68.3.99.58l.02.02c.35.3.59.63.74.99.15.36.21.73.19,1.1-.02.38-.11.76-.28,1.14s-.41.74-.7,1.08l-1.07,1.23,1.98,1.73-.95,1.08-6.17-5.39,2.13-2.43Zm3.68,1.65c0-.42-.16-.77-.48-1.05l-.02-.02c-.36-.32-.75-.44-1.14-.36s-.77.32-1.12.73l-1.1,1.26,2.22,1.94,1.1-1.26c.36-.41.54-.83.54-1.24Z"/><path class="cls-19" d="m255.05,26.79l4.47,1.14-.82-4.54,1.12-1.05,5.59,6-1.05.98-4.01-4.3.74,4.59-.03.03-4.5-1.07,3.99,4.29-1.04.97-5.59-6,1.12-1.05Z"/><path class="cls-19" d="m266.81,16.96l.78,1.03-3.7,2.8,1.29,1.7,3.28-2.48.78,1.04-3.28,2.48,1.32,1.75,3.75-2.83.78,1.03-4.89,3.7-4.95-6.54,4.85-3.67Z"/><path class="cls-19" d="m269.91,14.91l6.71,2.54-2.96-4.84,1.21-.74,4.28,7-1.03.63-6.91-2.62,3.05,4.98-1.21.74-4.28-7,1.14-.7Z"/><path class="cls-19" d="m277.3,12.08l-.58-1.2,5.99-2.92.58,1.2-2.35,1.14,3,6.17-1.29.63-3-6.17-2.35,1.14Z"/><path class="cls-19" d="m286.89,15.15l-.56.24-.64-1.49,1.43-.61.54,1.26c.26.6.31,1.1.14,1.49-.16.39-.51.73-1.03,1.01l-.38-.5c.61-.41.77-.88.49-1.41Z"/><path class="cls-19" d="m295.23,3.45l5.76,6.94-1.46.42-1.35-1.67-3.73,1.08-.26,2.14-1.42.41,1.18-8.94,1.28-.37Zm-.19,1.85l-.44,3.54,2.71-.78-2.27-2.76Z"/><path class="cls-19" d="m304.33,1.46c.51-.09.97-.1,1.39-.03.42.07.78.21,1.09.42.25.18.47.41.63.68.17.27.28.58.35.94v.02c.12.66.04,1.22-.24,1.69-.29.47-.69.83-1.22,1.09l2.73,2.66-1.68.3-2.49-2.45-1.77.32.51,2.81-1.42.26-1.45-8.06,3.59-.65Zm1.76,3.44c.26-.3.35-.65.27-1.07v-.02c-.08-.44-.29-.74-.62-.92-.33-.17-.76-.21-1.29-.12l-2.06.37.49,2.71,2.07-.37c.51-.09.89-.29,1.14-.58Z"/><path class="cls-19" d="m312.47,8.42c-.52-.18-.99-.44-1.39-.79s-.73-.77-.98-1.27c-.25-.5-.4-1.04-.45-1.62v-.02c-.05-.58,0-1.14.17-1.67s.42-1,.76-1.41c.34-.42.76-.75,1.26-1.02.5-.26,1.05-.42,1.67-.47.38-.03.73-.03,1.04,0,.31.04.6.1.87.19.27.09.51.21.74.34.23.14.45.29.66.46l-.84,1.14c-.36-.28-.73-.49-1.1-.64s-.8-.21-1.28-.17c-.39.03-.74.13-1.06.31-.32.17-.58.4-.8.68s-.38.6-.49.96c-.11.36-.15.74-.11,1.14v.02c.03.4.13.77.29,1.11.16.34.37.64.63.88s.57.42.91.55.71.17,1.1.14c.5-.04.92-.17,1.26-.38s.68-.5,1-.86l1,.86c-.19.24-.4.46-.61.65-.21.19-.45.37-.7.52-.25.15-.54.27-.85.36s-.66.15-1.04.18c-.6.05-1.16-.02-1.68-.19Z"/><path class="cls-19" d="m320.36.03l-.06,3.41,3.91.07.06-3.41,1.44.03-.15,8.19-1.44-.03.06-3.45-3.91-.07-.06,3.45-1.44-.03.15-8.19,1.44.03Z"/><path class="cls-19" d="m329.78.48l-.74,8.17-1.44-.13.74-8.17,1.44.13Z"/><path class="cls-19" d="m331.56,1.97l.21-1.32,6.58,1.03-.21,1.32-2.58-.4-1.05,6.78-1.42-.22,1.06-6.78-2.58-.4Z"/><path class="cls-19" d="m346.26,3.56l-.31,1.25-4.5-1.12-.51,2.07,3.99.99-.31,1.26-3.99-.99-.53,2.13,4.56,1.13-.31,1.25-5.96-1.48,1.98-7.96,5.9,1.46Z"/><path class="cls-19" d="m347.89,12.5c-.41-.38-.72-.8-.95-1.28-.22-.48-.35-1-.38-1.55-.03-.56.06-1.11.25-1.66v-.02c.2-.55.48-1.04.85-1.45.36-.41.79-.74,1.27-.98.48-.24,1-.38,1.56-.42.56-.04,1.13.04,1.71.25.36.13.68.27.95.43s.51.34.71.53c.21.19.38.4.54.62s.29.45.41.69l-1.23.7c-.22-.4-.46-.74-.75-1.04-.28-.29-.65-.52-1.1-.68-.37-.13-.73-.18-1.09-.15s-.69.13-1,.3c-.31.17-.59.39-.84.68-.25.29-.43.62-.57.99v.02c-.14.38-.2.75-.2,1.13s.08.73.22,1.06c.14.33.34.62.61.87.26.25.58.45.95.58.47.17.91.22,1.31.16.4-.06.82-.18,1.26-.38l.56,1.19c-.27.14-.55.26-.83.35-.28.09-.56.15-.85.18-.29.03-.6.03-.92-.01-.32-.04-.66-.13-1.02-.25-.57-.2-1.05-.49-1.46-.86Z"/><path class="cls-19" d="m356.06,8.39l.56-1.21,6.05,2.79-.56,1.21-2.37-1.09-2.87,6.23-1.31-.6,2.87-6.23-2.37-1.09Z"/><path class="cls-19" d="m362.14,18.9c-.29-.35-.5-.73-.61-1.15-.11-.42-.12-.86-.04-1.33s.27-.96.57-1.48l2.37-4.08,1.25.72-2.34,4.03c-.38.66-.52,1.26-.4,1.78.12.53.46.95,1.02,1.28.55.32,1.08.41,1.59.27.51-.14.95-.54,1.33-1.2l2.37-4.08,1.25.72-2.33,4.02c-.31.53-.65.95-1.02,1.26-.38.31-.77.53-1.19.64-.42.11-.85.13-1.3.04-.45-.09-.91-.26-1.38-.53-.46-.27-.84-.57-1.13-.92Z"/><path class="cls-19" d="m375.62,17.94c.42.3.75.63.99.98.24.35.39.71.46,1.07.04.31.03.62-.05.93-.08.31-.22.61-.43.9v.02c-.41.54-.87.88-1.41,1-.53.12-1.08.08-1.64-.12l-.02,3.81-1.39-1,.04-3.5-1.46-1.06-1.67,2.32-1.17-.84,4.8-6.65,2.97,2.14Zm-1.25,3.66c.39-.02.71-.2.96-.55v-.02c.27-.36.35-.72.25-1.08-.11-.36-.38-.7-.82-1.01l-1.7-1.23-1.61,2.23,1.71,1.23c.42.3.82.44,1.21.42Z"/><path class="cls-19" d="m384.49,25.21l-.85.97-3.49-3.05-1.4,1.61,3.1,2.71-.86.98-3.1-2.71-1.44,1.65,3.54,3.09-.85.97-4.62-4.04,5.39-6.17,4.58,4Z"/><path class="cls-19" d="m385.68,38.15c-.42-.19-.78-.47-1.1-.84-.25-.29-.44-.59-.57-.92-.13-.32-.2-.64-.2-.96,0-.32.06-.62.19-.92s.33-.55.59-.78h.02c.4-.36.85-.54,1.33-.56.49-.02,1,.11,1.55.39.08-.38.18-.69.32-.95s.31-.49.54-.68l.02-.02c.21-.18.45-.32.71-.4s.53-.1.8-.07c.27.03.55.12.82.26s.53.36.77.63c.21.25.37.51.47.77.1.27.14.53.13.79-.01.26-.07.51-.19.75-.12.24-.28.45-.48.62h-.02c-.41.37-.85.53-1.32.5-.47-.03-.96-.18-1.47-.46l-.17,2c.28-.03.57-.08.87-.14.3-.06.6-.14.91-.22l.28,1.2c-.36.09-.71.17-1.07.24s-.71.11-1.07.14l-.15,1.84-1.29-.31.13-1.55c-.48-.05-.92-.17-1.34-.36Zm.56-1.03c.26.11.56.19.88.22l.22-2.6c-.37-.18-.71-.26-1-.24s-.54.12-.74.3l-.02.02c-.27.23-.4.51-.4.85,0,.34.13.66.39.96.18.21.41.38.67.49Zm3.46-2.5c.29.04.55-.04.78-.24l.02-.02c.21-.18.32-.39.34-.63.02-.24-.06-.47-.24-.67-.19-.23-.42-.34-.68-.36-.26-.01-.5.07-.71.25l-.02.02c-.15.13-.27.29-.34.48-.08.19-.13.45-.17.78.39.22.74.34,1.03.38Z"/><path class="cls-19" d="m399.61,43.54c.34.54.57,1.09.67,1.66.11.56.11,1.11,0,1.63s-.31,1-.62,1.45c-.31.44-.71.82-1.2,1.12h-.02c-.49.32-1,.52-1.54.6s-1.06.06-1.58-.07-1.01-.37-1.47-.71-.86-.78-1.2-1.32l-1.62-2.59,6.94-4.36,1.62,2.59Zm-6.69,2.29l.86,1.37c.23.36.49.66.8.88.3.22.62.38.96.45.34.08.69.08,1.05.02s.71-.2,1.05-.42h.02c.34-.22.62-.48.83-.78.22-.3.37-.62.44-.96.08-.34.08-.69.01-1.07-.07-.37-.22-.74-.44-1.1l-.86-1.37-4.72,2.96Z"/><path class="cls-19" d="m405.75,54.77l-1.15.57-2.07-4.15-1.91.95,1.83,3.68-1.16.58-1.83-3.68-1.96.98,2.09,4.2-1.15.57-2.73-5.49,7.34-3.65,2.71,5.44Z"/><path class="cls-19" d="m399.61,60.79c-.01-.62.1-1.23.34-1.86l1.28.43c-.17.5-.27.97-.29,1.42-.02.45.06.91.25,1.38.16.42.38.71.65.88.27.17.55.21.84.09h.02c.14-.06.25-.13.34-.22.09-.09.15-.21.2-.38s.06-.37.06-.63c0-.25-.04-.57-.1-.96-.07-.44-.1-.85-.1-1.21,0-.36.04-.69.12-.97s.23-.53.43-.74c.2-.21.48-.38.83-.52h.02c.33-.14.65-.19.98-.17.32.02.63.11.91.27.28.15.54.37.78.65s.43.61.57.98c.22.56.33,1.1.35,1.61.01.51-.06,1.02-.22,1.54l-1.3-.32c.12-.45.18-.87.18-1.26,0-.39-.07-.77-.2-1.12-.15-.39-.36-.66-.62-.81-.26-.15-.52-.17-.77-.08h-.02c-.15.07-.26.14-.36.24-.09.1-.16.23-.19.4-.04.17-.05.39-.04.66s.05.6.1,1c.05.44.08.84.08,1.19s-.05.67-.15.95c-.1.28-.24.51-.44.71-.2.2-.45.35-.76.48h-.02c-.36.15-.7.21-1.04.18-.34-.02-.65-.12-.94-.28s-.55-.39-.79-.69c-.23-.29-.43-.64-.58-1.04-.23-.59-.35-1.19-.36-1.81Z"/><path class="cls-19" d="m409.88,65.71l-7.81,2.5-.44-1.37,7.81-2.5.44,1.37Z"/><path class="cls-19" d="m403.4,72.21c.09-.56.27-1.06.55-1.51s.65-.83,1.1-1.15c.45-.32.97-.54,1.55-.69h.02c.55-.14,1.11-.16,1.66-.08s1.06.26,1.52.53.87.64,1.21,1.09c.34.45.58.98.73,1.58.08.35.13.67.15.97.02.3.01.58-.02.84-.03.26-.09.52-.17.77-.08.25-.18.5-.31.74l-1.27-.63c.09-.18.17-.37.24-.55.06-.18.11-.37.15-.57.03-.19.04-.4.03-.62-.01-.22-.05-.45-.11-.7-.09-.36-.24-.69-.47-.97-.22-.28-.49-.5-.8-.68-.31-.17-.65-.28-1.03-.33-.37-.05-.75-.03-1.13.06h-.02c-.41.1-.77.26-1.09.47-.32.21-.57.47-.77.77-.19.3-.32.63-.39,1-.07.37-.05.75.05,1.16.09.38.23.72.42,1.03.19.3.41.56.65.76l1.48-.36-.49-2.04,1.23-.29.81,3.4-3.35.8c-.21-.16-.43-.34-.64-.54s-.4-.43-.58-.68c-.18-.25-.34-.53-.48-.83-.14-.3-.25-.63-.34-.98-.15-.62-.18-1.21-.09-1.77Z"/><path class="cls-19" d="m413.02,79.18l-5.05,5.09,5.62-.73.18,1.41-8.13,1.06-.16-1.2,5.2-5.23-5.78.75-.18-1.41,8.13-1.06.17,1.32Z"/><path class="cls-19" d="m56.77,198.13c-.11.55-.31,1.05-.61,1.49-.3.44-.68.8-1.14,1.1-.46.3-.99.5-1.58.62h-.02c-.56.11-1.11.12-1.66.01-.55-.1-1.04-.3-1.5-.6-.45-.29-.84-.67-1.16-1.14s-.54-1-.66-1.61c-.07-.35-.11-.68-.11-.97,0-.3.01-.58.06-.84s.11-.52.2-.76c.09-.25.21-.49.34-.73l1.25.69c-.1.18-.19.36-.26.54-.07.18-.13.37-.17.56s-.06.4-.06.61c0,.22.03.45.08.71.07.37.21.7.43.98.21.29.47.52.77.71.3.18.64.31,1.01.37s.75.06,1.13-.01h.02c.41-.09.78-.23,1.11-.43.33-.2.59-.44.8-.74s.35-.62.43-.98c.08-.36.08-.75,0-1.16-.08-.38-.2-.73-.38-1.04-.18-.31-.38-.57-.61-.78l-1.49.29.4,2.06-1.24.24-.67-3.42,3.38-.66c.21.17.41.35.61.57.2.21.39.45.56.7s.32.54.45.85c.13.31.23.64.3.99.12.63.13,1.22.02,1.77Z"/><path class="cls-19" d="m47.46,190.72l6.85-.68-.43-4.29,1.31-.13.57,5.72-8.16.81-.14-1.43Z"/><path class="cls-19" d="m54.92,182.63c-.21.53-.51.98-.89,1.36-.38.38-.82.68-1.33.9-.51.22-1.05.33-1.63.34h-.02c-.58,0-1.12-.09-1.64-.29-.52-.2-.97-.49-1.36-.87-.39-.38-.71-.83-.94-1.34-.24-.52-.36-1.1-.37-1.73s.09-1.21.31-1.74c.21-.53.51-.98.89-1.36.38-.38.82-.68,1.33-.9.51-.22,1.05-.33,1.63-.34h.02c.58,0,1.12.09,1.64.29.51.2.97.49,1.36.87s.71.83.94,1.34c.23.52.36,1.1.37,1.73.01.63-.09,1.21-.31,1.74Zm-1.28-2.86c-.16-.34-.37-.62-.63-.86s-.57-.42-.92-.55c-.35-.13-.73-.19-1.13-.19h-.02c-.4,0-.77.08-1.12.22-.35.14-.66.34-.92.59-.26.25-.47.55-.61.89-.15.35-.22.72-.21,1.13,0,.41.09.78.25,1.12.16.34.37.63.63.86.26.24.57.42.92.55.35.13.73.19,1.13.19h.02c.4,0,.77-.08,1.12-.22.35-.14.66-.34.92-.59s.47-.55.61-.89c.15-.35.22-.72.21-1.13,0-.41-.09-.78-.25-1.12Z"/><path class="cls-19" d="m47.37,170.62c.09-.94.4-1.63.93-2.06.4-.33.87-.47,1.41-.42h.02c.25.03.46.08.65.17.18.08.34.19.48.31.13.12.25.25.34.41s.17.31.24.46c.11-.23.23-.44.36-.63.13-.19.28-.35.45-.47.17-.13.36-.22.58-.28.22-.06.47-.07.75-.04h.02c.37.04.68.14.95.31.27.17.48.4.64.68s.27.61.33,1,.07.8.03,1.25l-.37,3.78-8.16-.79.35-3.66Zm1.63-.73c-.21.23-.33.57-.38,1.04l-.2,2.06,2.17.21.19-1.96c.04-.47-.01-.85-.17-1.15-.16-.3-.42-.46-.79-.5h-.02c-.33-.03-.59.06-.8.29Zm3.43-.08c-.22.26-.35.67-.41,1.24l-.22,2.27,2.24.22.23-2.38c.05-.49,0-.88-.17-1.18-.16-.3-.43-.46-.8-.5h-.02c-.35-.04-.63.08-.85.33Z"/><path class="cls-19" d="m48.76,161.12l8.8-1.93-.3,1.49-2.1.43-.76,3.8,1.78,1.21-.29,1.45-7.4-5.15.26-1.31Zm1.55,1.01l2.94,2.02.55-2.77-3.49.75Z"/><path class="cls-19" d="m50.51,154.3l6.59,1.98,1.24-4.13,1.26.38-1.66,5.51-7.85-2.36.41-1.38Z"/><path class="cls-19" d="m61.91,146.14c-.43.44-.96.79-1.57,1.05l-.58-1.22c.48-.22.89-.48,1.22-.77.34-.3.61-.68.82-1.14.18-.4.25-.77.18-1.08s-.24-.54-.51-.67h-.02c-.14-.07-.26-.1-.39-.1s-.26.04-.41.12c-.15.08-.31.21-.49.39-.18.18-.38.43-.62.74-.27.36-.54.66-.8.92-.26.26-.52.45-.78.58s-.54.2-.83.2c-.29,0-.61-.08-.95-.23h-.02c-.32-.16-.58-.35-.79-.6-.21-.25-.35-.53-.44-.84s-.11-.64-.07-1.01.14-.73.31-1.1c.25-.55.55-1,.91-1.37.36-.36.78-.67,1.26-.91l.67,1.16c-.4.23-.75.48-1.03.75-.28.27-.5.58-.66.92-.18.38-.23.72-.15,1.01.07.29.23.49.48.61h.02c.14.08.28.11.41.11.13,0,.27-.05.42-.14.15-.09.32-.24.5-.43s.4-.45.65-.77c.28-.34.55-.64.8-.88s.52-.43.79-.55.54-.18.81-.18c.28,0,.57.08.87.22h.02c.35.17.63.38.85.63s.37.55.45.87c.08.32.1.67.05,1.04-.05.37-.16.75-.34,1.14-.26.58-.61,1.08-1.05,1.52Z"/><path class="cls-19" d="m59.63,132.91l8.96,1.01-.76,1.32-2.13-.27-1.94,3.36,1.29,1.72-.74,1.28-5.35-7.26.67-1.16Zm1.15,1.46l2.14,2.86,1.41-2.45-3.55-.41Z"/><path class="cls-19" d="m63.46,127l5.62,3.99,2.5-3.52,1.07.76-3.33,4.69-6.69-4.75.83-1.18Z"/><path class="cls-19" d="m71.15,117.27l.98.83-3,3.53,1.62,1.38,2.66-3.13.99.84-2.66,3.13,1.67,1.42,3.04-3.58.98.83-3.97,4.68-6.25-5.31,3.94-4.63Z"/><path class="cls-19" d="m79.1,120.54c-.56.25-1.17.4-1.84.42l-.11-1.34c.53-.04,1-.13,1.42-.29.42-.16.81-.42,1.17-.77.32-.31.5-.63.55-.95.05-.32-.03-.59-.24-.8l-.02-.02c-.1-.11-.21-.18-.33-.23-.12-.04-.26-.06-.43-.03-.17.02-.37.09-.6.2s-.51.26-.84.47c-.38.24-.74.43-1.07.57-.33.15-.64.24-.94.27-.29.03-.58,0-.85-.11-.27-.1-.54-.29-.8-.55l-.02-.02c-.25-.25-.42-.53-.53-.84-.11-.31-.14-.62-.11-.94s.12-.64.29-.97.39-.63.68-.92c.43-.42.87-.74,1.34-.95.46-.21.97-.35,1.5-.41l.22,1.32c-.46.07-.87.18-1.23.34-.36.16-.68.37-.94.63-.3.3-.47.59-.5.89-.04.3.04.54.24.74l.02.02c.11.11.23.19.35.24s.27.05.45.02c.17-.03.38-.11.62-.22.24-.11.53-.28.88-.49.38-.22.74-.4,1.06-.54.33-.14.64-.21.93-.23s.57.02.82.12c.26.1.5.28.74.51l.02.02c.27.27.46.57.57.89.11.32.15.64.12.97s-.14.66-.32.99-.42.65-.73.95c-.45.44-.96.79-1.52,1.05Z"/><path class="cls-19" d="m83.34,106.07l6.9,1.97-3.35-4.57,1.14-.84,4.85,6.61-.97.71-7.1-2.03,3.45,4.7-1.14.84-4.85-6.61,1.08-.79Z"/><path class="cls-19" d="m95.54,98.08l.66,1.11-3.99,2.36,1.09,1.83,3.54-2.09.66,1.12-3.54,2.09,1.12,1.88,4.04-2.39.66,1.11-5.28,3.13-4.18-7.05,5.23-3.1Z"/><path class="cls-19" d="m97.61,98.47l-.58-1.2,6.01-2.88.58,1.2-2.35,1.13,2.97,6.19-1.3.62-2.97-6.19-2.35,1.13Z"/><path class="cls-19" d="m105.95,93.11l3.81,5.13-.06-6.43,1.15-.39,3.87,5.13-.1-6.39,1.43-.49-.04,8.74-1.19.4-3.8-4.93v6.23s-1.2.4-1.2.4l-5.35-6.9,1.48-.5Z"/><path class="cls-19" d="m121.58,96.75c-.56-.11-1.06-.32-1.5-.62-.44-.3-.82-.68-1.13-1.14-.31-.46-.52-.97-.64-1.54v-.02c-.12-.57-.12-1.12-.02-1.66s.31-1.04.6-1.5.68-.85,1.15-1.17c.47-.33,1.01-.55,1.63-.68.62-.13,1.21-.13,1.77-.02.56.11,1.06.32,1.5.62.44.3.82.68,1.13,1.14s.52.97.64,1.54v.02c.12.57.12,1.12.02,1.66s-.31,1.04-.6,1.5-.68.85-1.15,1.17c-.47.33-1.01.55-1.63.68-.62.13-1.21.13-1.76.02Zm2.57-1.78c.3-.22.55-.48.73-.78s.31-.64.37-1.01c.06-.37.06-.75-.02-1.14v-.02c-.08-.39-.23-.74-.43-1.06-.2-.32-.45-.58-.75-.79-.29-.21-.62-.36-.99-.44-.37-.08-.75-.08-1.15,0-.4.08-.75.23-1.05.45s-.55.48-.73.78-.31.64-.37,1.01c-.06.37-.06.75.02,1.14v.02c.08.39.23.74.43,1.06.2.32.45.58.75.79s.62.36.99.44c.37.08.75.08,1.15,0,.4-.08.75-.23,1.05-.45Z"/><path class="cls-19" d="m131.9,87.07c.51-.05.97-.02,1.38.09.41.11.76.27,1.05.5.24.21.43.45.58.73.15.28.23.61.27.96v.02c.07.67-.06,1.22-.39,1.67-.32.44-.76.77-1.31.99l2.5,2.88-1.7.16-2.28-2.65-1.8.17.27,2.84-1.43.14-.78-8.16,3.64-.35Zm1.47,3.57c.28-.27.4-.62.36-1.04v-.02c-.04-.44-.22-.76-.54-.97s-.74-.28-1.28-.22l-2.09.2.26,2.74,2.1-.2c.51-.05.91-.21,1.19-.48Z"/><path class="cls-19" d="m138.83,86.65l-.06,4.12,3.96-4.06,1.79.03-3.48,3.47,3.5,4.73-1.76-.03-2.74-3.74-1.3,1.29-.04,2.38-1.44-.02.13-8.2,1.44.02Z"/><path class="cls-8" d="m528.09,90.98l-2.1,6.56,4.11,1.31-.4,1.25-5.48-1.75,2.5-7.81,1.37.44Z"/><path class="cls-8" d="m539.7,95.34l-.5,1.19-4.28-1.79-.82,1.97,3.79,1.58-.5,1.2-3.79-1.58-.84,2.02,4.33,1.81-.5,1.19-5.66-2.37,3.16-7.56,5.61,2.34Z"/><path class="cls-8" d="m539.94,104.43c-.36-.44-.61-.91-.76-1.42-.15-.51-.19-1.04-.12-1.58.06-.55.24-1.08.52-1.61v-.02c.28-.5.63-.93,1.06-1.29s.9-.61,1.41-.78,1.05-.22,1.62-.17,1.12.22,1.66.51c.32.17.59.35.83.53.23.18.44.38.61.58.17.2.33.42.46.64s.25.47.35.73l-1.32.53c-.07-.19-.16-.37-.25-.54-.09-.17-.2-.33-.32-.49-.12-.15-.27-.3-.44-.43-.17-.14-.37-.27-.6-.39-.33-.18-.67-.28-1.03-.3s-.7.03-1.04.15c-.33.12-.64.3-.93.54-.29.25-.52.54-.71.88v.02c-.21.37-.34.75-.39,1.13-.05.38-.03.74.06,1.08.09.34.26.66.49.95.23.29.53.54.9.74.34.18.69.31,1.04.37.35.06.68.07.99.02l.72-1.34-1.85-.99.6-1.11,3.07,1.66-1.63,3.03c-.26.06-.54.09-.83.11s-.59.02-.9-.02-.62-.1-.94-.19c-.32-.1-.64-.23-.96-.4-.56-.3-1.03-.67-1.38-1.11Z"/><path class="cls-8" d="m553.98,103.49l-1.68,8.86-1.26-.86.43-2.1-3.2-2.19-1.81,1.16-1.22-.83,7.64-4.79,1.1.75Zm-1.54,1.03l-3.01,1.92,2.33,1.59.68-3.51Z"/><path class="cls-8" d="m559.59,107.78l-4.41,5.29,3.31,2.76-.84,1.01-4.42-3.68,5.24-6.3,1.11.92Z"/><path class="cls-8" d="m562.65,121.46c-.23-.57-.35-1.19-.35-1.85l1.34-.06c.02.53.09,1,.24,1.43.14.43.38.83.73,1.2.3.33.61.52.93.59.32.06.59,0,.81-.21l.02-.02c.11-.1.19-.21.24-.32.05-.11.07-.25.05-.42-.02-.17-.07-.37-.17-.6s-.24-.52-.44-.86c-.22-.39-.4-.75-.53-1.09-.13-.34-.21-.65-.23-.95-.02-.29.03-.58.14-.84.11-.27.31-.53.59-.78l.02-.02c.26-.24.54-.4.86-.5.31-.09.62-.12.94-.08.32.04.64.15.96.32.32.17.62.41.89.71.41.44.71.9.9,1.37s.31.98.35,1.52l-1.33.17c-.05-.46-.15-.88-.29-1.24-.14-.37-.34-.69-.59-.97-.28-.31-.58-.49-.87-.54-.3-.05-.54.02-.75.21l-.02.02c-.12.11-.2.22-.25.34-.05.12-.06.27-.04.45.03.18.09.38.2.63s.26.54.46.9c.21.39.38.75.5,1.08.12.33.19.64.2.94,0,.29-.04.57-.16.82s-.29.49-.54.72l-.02.02c-.28.26-.58.44-.91.54-.32.1-.65.12-.98.08-.33-.05-.66-.17-.98-.36-.32-.19-.63-.45-.92-.76-.43-.47-.76-.99-.99-1.56Z"/><path class="cls-8" d="m576.87,126.1l-1.02.78-2.82-3.68-1.69,1.3,2.5,3.26-1.03.79-2.5-3.26-1.74,1.33,2.86,3.73-1.02.78-3.73-4.87,6.5-4.99,3.7,4.82Z"/><path class="cls-8" d="m580.17,131.14c.27.44.46.86.54,1.28.09.41.1.8.02,1.16-.08.31-.21.59-.4.84-.19.26-.44.48-.74.67h-.02c-.57.37-1.12.5-1.66.41-.54-.09-1.03-.33-1.47-.73l-1.45,3.52-.91-1.45,1.35-3.22-.96-1.53-2.42,1.52-.77-1.22,6.94-4.36,1.94,3.09Zm-2.53,2.92c.37.13.73.08,1.09-.15h.02c.38-.25.58-.55.62-.93.04-.37-.09-.79-.37-1.25l-1.11-1.78-2.33,1.46,1.12,1.79c.27.44.6.72.97.85Z"/><path class="cls-8" d="m583.22,136.36l-4.52,5.03,6.73-.63.7,1.39-8.9.67-.58-1.15,5.86-6.74.71,1.42Z"/><path class="cls-8" d="m587.38,145.32l-7.57,3.14-.55-1.33,7.57-3.14.55,1.33Z"/><path class="cls-8" d="m581.46,152.31c.05-.55.19-1.06.43-1.53.24-.47.57-.89,1-1.25.42-.36.91-.64,1.47-.82h.02c.56-.19,1.11-.27,1.66-.23.55.04,1.07.17,1.55.4.48.23.91.56,1.29.98.37.42.66.92.85,1.51.12.36.2.7.24,1.01s.04.61.02.89c-.03.28-.08.55-.16.8s-.18.51-.29.75l-1.3-.54c.18-.42.3-.82.36-1.23s.01-.83-.14-1.28c-.12-.37-.31-.69-.55-.95s-.53-.47-.85-.61c-.32-.14-.67-.22-1.05-.24-.38-.02-.75.03-1.13.16h-.02c-.38.13-.71.31-1.01.55-.29.24-.53.51-.7.83-.17.31-.28.65-.32,1.01-.04.36,0,.73.12,1.1.16.47.38.85.67,1.13s.65.54,1.07.77l-.6,1.17c-.28-.13-.54-.27-.78-.44s-.46-.35-.67-.56-.39-.46-.55-.74c-.16-.28-.3-.6-.42-.96-.19-.57-.26-1.13-.21-1.68Z"/><path class="cls-8" d="m592.52,162.49l-1.26.29-1.04-4.52-2.08.48.92,4.01-1.27.29-.92-4.01-2.13.49,1.05,4.58-1.26.29-1.38-5.98,7.99-1.84,1.36,5.92Z"/><path class="cls-8" d="m585.15,166.92c.13-.6.39-1.18.76-1.73l1.14.72c-.29.44-.49.88-.62,1.31-.12.43-.15.9-.08,1.4.06.44.21.78.43,1.01s.49.33.79.29h.02c.15-.02.27-.07.38-.13.1-.07.2-.17.28-.32.08-.15.15-.35.2-.6.05-.25.09-.57.13-.96.04-.45.1-.85.18-1.2.08-.35.2-.66.35-.91.15-.25.35-.46.59-.61.25-.16.55-.26.93-.31h.02c.35-.05.68-.03.99.07.31.1.58.25.82.47.24.21.44.48.6.81.16.32.27.69.33,1.09.08.6.07,1.14-.04,1.64-.11.5-.3.98-.57,1.45l-1.18-.61c.22-.41.37-.81.47-1.19.09-.38.11-.76.06-1.13-.06-.42-.2-.73-.41-.94s-.46-.29-.73-.25h-.02c-.16.02-.29.07-.4.14-.11.07-.21.19-.28.35s-.14.37-.19.63c-.05.26-.09.59-.13,1-.05.44-.12.83-.2,1.18-.09.34-.21.64-.37.88-.16.25-.36.44-.59.58-.24.14-.52.24-.85.28h-.02c-.38.06-.73.03-1.05-.07-.32-.1-.6-.26-.85-.49-.24-.23-.45-.51-.6-.85-.16-.34-.27-.72-.33-1.15-.09-.63-.06-1.24.07-1.84Z"/><path class="cls-8" d="m22.83,313.38c.5-.26,1.02-.42,1.55-.47s1.06,0,1.59.17c.53.16,1.02.42,1.47.79h.02c.45.38.8.81,1.07,1.29.26.49.42,1,.48,1.54.06.54,0,1.09-.15,1.63-.16.55-.43,1.07-.83,1.56s-.85.87-1.35,1.13c-.5.26-1.02.42-1.55.47-.53.05-1.07,0-1.59-.17-.53-.16-1.02-.42-1.47-.79h-.02c-.45-.38-.8-.81-1.07-1.29-.26-.49-.42-1-.48-1.54s0-1.09.15-1.63c.16-.55.43-1.07.83-1.56.4-.49.85-.87,1.35-1.13Zm-.86,3.01c-.1.36-.12.71-.08,1.07.05.35.16.69.35,1.02.19.33.43.62.74.87h.02c.31.27.64.45,1,.57.36.12.72.16,1.08.14.36-.02.71-.12,1.04-.29.33-.17.63-.41.89-.73.26-.32.43-.65.53-1.01s.12-.71.07-1.06c-.05-.35-.16-.69-.35-1.02-.19-.33-.43-.62-.74-.87h-.02c-.31-.27-.64-.45-1-.57s-.72-.16-1.08-.14c-.36.02-.71.12-1.04.29s-.63.41-.89.73c-.26.32-.43.65-.53,1.01Z"/><path class="cls-8" d="m23.67,325.41l-7.15.58,4.75,3.1-.78,1.19-6.87-4.49.66-1.01,7.36-.6-4.89-3.19.78-1.19,6.87,4.49-.73,1.12Z"/><path class="cls-8" d="m14.7,332.72l-1.22-.67,1.67-3.04,1.22.67-1.67,3.04Z"/><path class="cls-8" d="m9.73,333.53c.44-.43.96-.78,1.57-1.04l.57,1.22c-.48.22-.89.47-1.23.77-.34.29-.61.67-.83,1.13-.19.4-.25.77-.18,1.08.06.32.23.54.51.67h.02c.13.07.26.1.39.11.12,0,.26-.04.41-.12.15-.08.31-.21.49-.39.18-.18.39-.43.62-.74.28-.35.54-.66.8-.91.26-.25.52-.45.78-.58.26-.13.54-.2.83-.2.29,0,.61.08.95.24h.02c.32.16.58.36.79.61.21.25.35.53.44.84.08.31.11.65.07,1.01-.04.36-.14.73-.31,1.09-.25.55-.56,1-.92,1.36-.36.36-.78.67-1.26.91l-.66-1.16c.41-.23.75-.47,1.04-.75.29-.27.51-.58.66-.92.18-.38.23-.72.16-1.01-.07-.29-.23-.5-.48-.61h-.02c-.14-.08-.28-.11-.41-.11-.13,0-.28.04-.43.14-.15.09-.32.24-.5.43-.18.19-.4.45-.65.77-.28.34-.55.64-.81.88-.26.24-.52.42-.79.55-.27.12-.54.18-.82.17-.28,0-.57-.08-.87-.22h-.02c-.35-.17-.63-.38-.84-.64s-.37-.55-.45-.87-.1-.67-.05-1.04c.05-.37.17-.75.35-1.14.26-.57.62-1.08,1.05-1.51Z"/><path class="cls-8" d="m13.92,344.01l-7.64-2.98.52-1.34,7.64,2.98-.52,1.34Z"/><path class="cls-8" d="m12.11,344.88l1.27.41-2.02,6.35-1.27-.41.79-2.49-6.54-2.08.44-1.37,6.54,2.08.79-2.49Z"/><path class="cls-8" d="m9.71,358.78l-1.26-.29,1.03-4.53-2.08-.47-.91,4.01-1.27-.29.91-4.01-2.14-.49-1.04,4.58-1.26-.29,1.36-5.99,8,1.82-1.35,5.93Z"/><path class="cls-8" d="m8.56,367.78c-.04.47-.14.9-.3,1.27-.16.37-.38.68-.64.93-.26.25-.57.43-.92.54s-.73.15-1.14.12h-.02c-.46-.04-.85-.16-1.19-.36-.33-.2-.6-.46-.81-.78-.21-.32-.35-.68-.44-1.08-.09-.41-.11-.84-.07-1.29l.14-1.62-2.63-.23.12-1.44,8.17.71-.28,3.22Zm-3.94.84c.25.34.58.53,1.01.56h.02c.48.04.86-.08,1.13-.38.27-.3.43-.71.48-1.25l.14-1.67-2.94-.25-.14,1.67c-.05.54.05.99.3,1.33Z"/><path class="cls-8" d="m8.26,375.69c0,.52-.06.97-.2,1.37-.14.4-.33.74-.59,1.01-.22.22-.48.39-.78.52-.29.12-.62.19-.98.19h-.02c-.67.01-1.22-.16-1.63-.52-.42-.36-.71-.82-.88-1.39l-3.07,2.26-.03-1.71,2.83-2.06-.03-1.8-2.86.04-.02-1.44,8.2-.13.06,3.66Zm-3.68,1.18c.25.3.59.45,1.01.44h.02c.45,0,.78-.16,1.01-.46.23-.3.33-.72.33-1.26l-.03-2.1-2.75.04.03,2.11c0,.52.14.92.39,1.22Z"/><path class="cls-8" d="m.57,383.2c.17-.54.42-1.02.77-1.43.34-.41.76-.75,1.25-1.01.49-.26,1.02-.42,1.59-.48h.02c.58-.06,1.13-.01,1.66.15s1.01.41,1.43.75c.42.34.77.76,1.05,1.26.28.5.45,1.06.51,1.69.06.63.01,1.22-.16,1.76-.17.54-.42,1.02-.77,1.43-.34.41-.76.75-1.25,1.01-.49.26-1.02.42-1.59.48h-.02c-.58.06-1.13.01-1.66-.15-.53-.16-1.01-.41-1.43-.75-.42-.34-.78-.76-1.05-1.26-.28-.5-.45-1.06-.51-1.69-.06-.63-.01-1.22.16-1.76Zm1.52,2.74c.19.32.42.59.7.81.28.21.6.37.97.47.36.1.74.13,1.14.09h.02c.4-.04.76-.15,1.1-.32s.62-.39.86-.67.42-.59.53-.94c.12-.36.15-.74.11-1.14-.04-.4-.15-.77-.34-1.09-.19-.32-.42-.59-.7-.81-.28-.21-.6-.37-.97-.47-.36-.1-.74-.13-1.14-.09h-.02c-.4.04-.76.15-1.1.32-.34.17-.62.39-.86.67s-.42.59-.53.94c-.12.36-.15.74-.11,1.14s.15.77.34,1.09Z"/><path class="cls-8" d="m1.65,391.21c.17-.46.41-.86.73-1.2l1.14.75c-.26.3-.45.58-.57.87-.12.28-.14.59-.08.94.07.38.26.67.56.85s.72.23,1.27.12l5.27-1.01.28,1.46-5.32,1.01c-.48.09-.91.11-1.29.04-.38-.07-.71-.2-.99-.39s-.52-.44-.7-.75c-.18-.31-.31-.66-.39-1.07-.12-.62-.09-1.16.08-1.62Z"/><path class="cls-8" d="m12.25,401.54l-1.24.34-1.23-4.47-2.06.57,1.09,3.96-1.25.35-1.09-3.96-2.11.58,1.25,4.53-1.24.34-1.63-5.92,7.9-2.18,1.62,5.86Z"/><path class="cls-8" d="m5.97,407.8c.03-.55.15-1.07.37-1.55.22-.48.54-.91.95-1.29.41-.38.89-.67,1.43-.88h.02c.55-.21,1.1-.31,1.65-.3.55.01,1.07.13,1.57.34.49.21.94.52,1.33.93.39.4.69.89.91,1.47.13.36.23.69.28,1s.07.61.05.89c-.01.28-.06.55-.12.81-.07.26-.16.51-.26.76l-1.32-.49c.17-.42.27-.83.31-1.24.04-.4-.02-.83-.19-1.28-.14-.37-.33-.67-.59-.93-.25-.25-.55-.45-.88-.58-.33-.13-.68-.2-1.06-.2-.38,0-.75.07-1.12.21h-.02c-.37.15-.7.34-.99.59-.29.25-.51.53-.67.85-.16.32-.25.66-.28,1.02-.03.36.03.73.17,1.09.18.47.42.84.72,1.11.3.27.67.51,1.1.72l-.55,1.2c-.29-.12-.55-.25-.8-.41-.25-.15-.48-.33-.69-.53-.21-.2-.41-.44-.58-.71s-.33-.59-.46-.95c-.21-.56-.31-1.12-.28-1.67Z"/><path class="cls-8" d="m14.31,410.8l1.2-.58,2.91,6-1.2.58-1.14-2.35-6.18,3-.63-1.3,6.18-3-1.14-2.35Z"/><path class="cls-8" d="m15.76,427.34c-.11-.56-.11-1.1,0-1.62.11-.53.31-1.02.62-1.48s.7-.86,1.17-1.18h.02c.48-.34.99-.56,1.53-.67.54-.11,1.08-.12,1.62-.02s1.04.3,1.53.61.9.72,1.26,1.24c.36.52.59,1.06.7,1.62.11.56.11,1.1,0,1.62-.11.53-.31,1.02-.61,1.48-.3.46-.7.86-1.17,1.18h-.02c-.48.34-.99.56-1.53.67-.54.11-1.08.12-1.62.02-.54-.1-1.04-.3-1.53-.61-.48-.31-.9-.72-1.26-1.24-.36-.52-.59-1.06-.7-1.62Zm2.64,1.69c.32.2.65.32,1,.38.35.06.71.04,1.08-.04.37-.08.72-.24,1.04-.46h.02c.33-.24.6-.5.82-.82.21-.31.36-.64.44-1,.08-.35.09-.71.02-1.08-.07-.37-.22-.72-.44-1.06s-.5-.6-.82-.8-.65-.32-1-.38c-.35-.06-.71-.04-1.08.04-.37.08-.72.24-1.04.46h-.02c-.33.24-.6.5-.82.82-.21.31-.36.64-.44,1s-.09.71-.02,1.08.22.72.44,1.06.5.6.82.8Z"/><path class="cls-8" d="m30.61,433.63l-1.01.84-2.98-3.58-1.72,1.43,2.64,3.18-1.01.84-2.65-3.18-2.57,2.14-.92-1.11,6.3-5.25,3.9,4.69Z"/><path class="cls-8" d="m35.79,438.93l-.93.92-3.27-3.32-1.59,1.57,2.9,2.94-.93.92-2.9-2.94-2.37,2.34-1.01-1.02,5.83-5.76,4.29,4.34Z"/><path class="cls-8" d="m38.01,440.87l-5.47,6.11-1.07-.96,5.47-6.11,1.07.96Z"/><path class="cls-8" d="m36.21,449.82c-.27-.48-.43-.99-.49-1.52-.06-.53-.01-1.06.14-1.59.15-.54.41-1.03.77-1.5v-.02c.38-.46.79-.83,1.27-1.11.48-.28.98-.45,1.52-.53s1.07-.04,1.61.1c.54.14,1.06.4,1.54.78.3.23.55.47.76.71.21.24.37.48.51.73.13.25.24.5.31.76.08.26.13.52.17.79l-1.38.27c-.08-.45-.2-.85-.38-1.22-.17-.37-.45-.7-.82-.99-.31-.24-.64-.4-.99-.49s-.7-.1-1.05-.04c-.35.06-.68.19-1.01.38-.32.19-.61.45-.85.76v.02c-.26.31-.44.65-.55,1.01-.11.36-.16.72-.12,1.07.03.36.13.7.3,1.02.17.32.41.61.71.85.39.31.79.5,1.19.57s.84.09,1.32.05l.15,1.31c-.31.05-.6.07-.89.07-.29,0-.58-.04-.87-.1s-.58-.16-.87-.31c-.29-.14-.59-.33-.89-.57-.47-.37-.84-.8-1.11-1.28Z"/><path class="cls-8" d="m51.23,450.53l-.7,1.08-3.9-2.51-1.15,1.79,3.46,2.22-.7,1.09-3.46-2.22-1.18,1.84,3.95,2.54-.7,1.08-5.17-3.32,4.43-6.9,5.12,3.29Z"/><path class="cls-8" d="m49.76,458.85c-.41-.46-.73-1-.96-1.63l1.25-.51c.19.49.43.91.7,1.27.28.35.64.65,1.09.89.39.21.75.29,1.07.24.32-.05.55-.21.69-.47v-.02c.08-.13.12-.26.13-.38,0-.12-.03-.26-.1-.42-.07-.15-.2-.32-.37-.51-.17-.19-.41-.41-.7-.66-.34-.29-.63-.58-.87-.85-.24-.27-.42-.54-.54-.81-.12-.27-.17-.55-.15-.84.02-.29.11-.6.29-.93v-.02c.17-.31.39-.56.65-.76.26-.19.55-.32.86-.39.31-.07.65-.07,1.01-.02.36.06.72.18,1.08.37.53.28.97.61,1.31.99s.62.82.84,1.31l-1.19.6c-.2-.42-.43-.78-.69-1.07-.26-.3-.55-.54-.88-.71-.37-.2-.71-.27-1-.21s-.51.21-.63.45v.02c-.08.14-.12.27-.13.41,0,.13.03.28.12.43.08.16.22.33.4.52s.43.42.73.69c.33.3.61.58.84.85.23.27.4.54.5.82s.15.55.13.82c-.02.28-.11.56-.27.86v.02c-.19.34-.41.61-.68.81s-.57.34-.9.4c-.33.07-.67.06-1.04,0s-.74-.21-1.12-.41c-.56-.3-1.04-.67-1.46-1.13Z"/><path class="cls-8" d="m586.36,452.61l.58,1.18-4.19,2.05.98,2.01,3.72-1.81.58,1.18-3.72,1.82,1.46,3-1.29.63-3.6-7.37,5.49-2.68Z"/><path class="cls-8" d="m593.37,457.92c-.45.09-.88.09-1.3-.01-.42-.1-.81-.3-1.19-.6s-.71-.7-1.02-1.21l-2.45-4.03,1.23-.75,2.42,3.98c.4.65.85,1.05,1.37,1.2.52.15,1.05.05,1.61-.28.55-.33.88-.75,1-1.27s-.02-1.09-.41-1.74l-2.45-4.03,1.23-.75,2.41,3.97c.32.52.52,1.02.62,1.5s.09.93,0,1.35c-.1.42-.3.81-.59,1.16-.29.36-.67.67-1.13.95-.45.28-.9.46-1.35.55Z"/><path class="cls-8" d="m595.84,446.69l6.92,1.88-3.41-4.53,1.13-.85,4.93,6.55-.96.73-7.12-1.94,3.51,4.66-1.13.85-4.93-6.55,1.07-.8Z"/><path class="cls-8" d="m604.13,439.95c.47-.43.97-.76,1.51-.97s1.07-.31,1.6-.31c.53,0,1.04.12,1.54.34.49.22.93.54,1.33.97l.02.02c.39.42.68.89.87,1.4.18.51.26,1.03.22,1.56s-.18,1.06-.43,1.58c-.25.52-.61.99-1.08,1.43l-2.25,2.07-5.56-6.02,2.25-2.08Zm3.49,6.16l1.19-1.1c.32-.29.56-.61.72-.95.17-.34.25-.68.27-1.03.01-.35-.04-.69-.17-1.04s-.33-.66-.6-.95l-.02-.02c-.27-.29-.57-.52-.91-.68-.33-.16-.67-.25-1.02-.26s-.7.05-1.05.18c-.35.14-.69.35-1,.64l-1.19,1.1,3.78,4.1Z"/><path class="cls-8" d="m613.84,429.4l8.71,2.33-.95,1.19-2.07-.58-2.42,3.03,1.02,1.89-.92,1.15-4.2-7.97.83-1.04Zm.91,1.61l1.69,3.15,1.76-2.21-3.45-.94Z"/><path class="cls-8" d="m623.92,429.29c-.5.36-1.07.63-1.71.79l-.38-1.29c.51-.14.95-.33,1.33-.58.38-.24.71-.57.99-1,.25-.37.36-.72.34-1.04s-.15-.57-.4-.74h-.02c-.12-.09-.25-.15-.37-.17-.12-.02-.26,0-.42.06-.16.06-.34.16-.54.31-.2.15-.45.36-.73.64-.33.31-.64.57-.93.78-.29.21-.58.37-.86.46-.28.09-.56.11-.85.07s-.59-.17-.9-.38h-.02c-.29-.21-.52-.44-.69-.72-.17-.28-.27-.58-.31-.9s0-.66.08-1.01c.09-.35.25-.7.47-1.04.33-.5.7-.91,1.11-1.21.41-.3.87-.54,1.39-.71l.48,1.25c-.43.16-.81.36-1.14.58-.32.23-.59.5-.79.81-.23.35-.33.68-.31.98.03.3.15.52.38.67h.02c.13.1.26.15.39.17.13.02.28,0,.44-.07.16-.07.35-.19.56-.35.21-.16.46-.38.76-.66.33-.3.64-.55.93-.75.29-.2.58-.34.86-.42.28-.08.56-.1.83-.05.27.05.55.17.83.35h.02c.32.22.57.47.74.76.17.29.28.6.31.93.03.33,0,.68-.11,1.04-.11.36-.28.72-.52,1.08-.35.53-.77.97-1.27,1.34Z"/><path class="cls-8" d="m628.06,422.7c-.47.4-1.01.71-1.64.93l-.49-1.26c.49-.18.92-.41,1.28-.68.36-.27.66-.63.9-1.07.21-.39.3-.75.26-1.07s-.2-.55-.46-.7h-.02c-.13-.08-.26-.12-.38-.13-.12,0-.26.02-.42.09s-.33.19-.52.36c-.19.17-.41.4-.67.69-.3.33-.59.62-.86.86-.28.24-.55.41-.82.52-.27.11-.55.16-.84.14s-.6-.12-.93-.3h-.02c-.31-.18-.56-.4-.75-.66-.19-.26-.32-.55-.38-.87-.06-.32-.06-.65,0-1.01.06-.36.19-.71.39-1.07.29-.53.63-.96,1.01-1.3.39-.34.83-.61,1.32-.82l.58,1.2c-.42.2-.78.42-1.08.67-.3.25-.54.54-.72.87-.2.37-.28.7-.23,1,.05.29.2.51.44.64h.02c.14.09.27.13.4.14.13,0,.28-.03.43-.11.16-.08.33-.21.53-.39s.43-.42.7-.72c.3-.32.59-.6.86-.82.27-.22.55-.39.82-.49.27-.1.55-.14.83-.12.27.03.56.12.85.28h.02c.34.2.6.42.8.7s.33.57.39.9c.06.33.05.67-.02,1.04-.08.37-.22.74-.42,1.12-.3.55-.69,1.03-1.16,1.44Z"/><path class="cls-8" d="m626.42,407.84l1.18.52-1.88,4.24,1.95.86,1.67-3.76,1.19.53-1.67,3.76,2,.89,1.9-4.29,1.18.52-2.49,5.61-7.5-3.32,2.46-5.56Z"/><path class="cls-8" d="m628.02,407.45l-1.26-.43,2.17-6.3,1.26.43-.85,2.47,6.49,2.24-.47,1.36-6.49-2.24-.85,2.47Z"/><path class="cls-8" d="m630.67,393.84l4.27-1.75-3.36-3.16.28-1.51,8.06,1.5-.26,1.42-5.78-1.07,3.33,3.25v.05s-4.25,1.82-4.25,1.82l5.76,1.07-.26,1.39-8.06-1.5.28-1.51Z"/><path class="cls-8" d="m632.33,381.45l8.51-2.96-.12,1.52-2.04.68-.3,3.86,1.91.99-.11,1.47-7.95-4.23.1-1.33Zm1.66.82l3.16,1.65.22-2.81-3.38,1.16Z"/><path class="cls-8" d="m632.62,375.43l5.56-4.53-5.66.14-.04-1.42,8.19-.2.03,1.21-5.72,4.66,5.83-.14.04,1.42-8.19.2-.03-1.33Z"/><path class="cls-8" d="m631.75,363.63l7.75-4.61.19,1.51-1.86,1.07.49,3.85,2.07.59.18,1.46-8.65-2.55-.17-1.33Zm1.8.47l3.43.99-.35-2.8-3.08,1.82Z"/><path class="cls-8" d="m638.58,355.6c-.09.56-.29,1.06-.57,1.5-.29.45-.66.82-1.11,1.13-.46.31-.98.53-1.56.66h-.02c-.56.13-1.11.15-1.66.06-.55-.09-1.05-.27-1.51-.55-.46-.28-.86-.65-1.19-1.11s-.57-.99-.71-1.59c-.08-.35-.13-.67-.14-.97s0-.58.03-.84.1-.52.18-.77c.08-.25.19-.49.32-.74l1.26.65c-.09.18-.18.36-.24.55-.07.18-.12.37-.15.56-.04.19-.05.4-.04.62,0,.22.04.45.1.7.08.37.23.69.45.97.22.28.48.51.79.69s.65.29,1.02.35c.37.06.75.04,1.13-.04h.02c.41-.1.78-.25,1.1-.46s.58-.46.78-.76.33-.63.4-.99.06-.75-.03-1.16c-.09-.38-.22-.73-.41-1.03-.19-.31-.4-.56-.63-.76l-1.49.33.46,2.05-1.23.28-.77-3.41,3.36-.76c.21.16.42.34.63.55.21.21.4.43.58.69.18.25.33.53.47.84s.25.63.32.98c.14.62.16,1.22.07,1.77Z"/><path class="cls-8" d="m627.26,345.05l1.23-.4,1.44,4.41,2.03-.66-1.28-3.91,1.24-.41,1.28,3.91,2.08-.68-1.46-4.47,1.23-.4,1.91,5.84-7.8,2.55-1.89-5.78Z"/><path class="cls-8" d="m626.15,342.25l2.54-3.85-4.56-.71-.62-1.4,7.5-3.32.58,1.32-5.38,2.38,4.58.8.02.04-2.47,3.9,5.36-2.37.57,1.3-7.5,3.32-.62-1.4Z"/><path class="cls-8" d="m619.66,329.42l1.12-.64,2.29,4.04,1.85-1.05-2.03-3.58,1.13-.64,2.03,3.58,1.91-1.08-2.32-4.09,1.12-.64,3.03,5.34-7.13,4.05-3-5.29Z"/><path class="cls-8" d="m618.13,327.08l2.13-6.85-4.65,3.25-.81-1.16,6.72-4.7.69.99-2.19,7.05,4.78-3.34.81,1.16-6.72,4.7-.77-1.09Z"/><path class="cls-8" d="m615.06,320.49l-1.02.86-4.31-5.09,1.02-.86,1.69,1.99,5.24-4.43.93,1.1-5.24,4.44,1.69,1.99Z"/><path class="cls-8" d="m139.22,564.49l-2.54,3.85,4.55.72.62,1.4-7.5,3.31-.58-1.32,5.38-2.38-4.58-.81-.02-.04,2.48-3.9-5.36,2.36-.57-1.3,7.5-3.31.62,1.4Z"/><path class="cls-8" d="m144.84,575.69l-5.35,7.25-.76-1.32,1.3-1.71-1.93-3.36-2.13.26-.74-1.28,8.95-1,.67,1.16Zm-1.84.26l-3.54.42,1.41,2.45,2.13-2.86Z"/><path class="cls-8" d="m149.36,582.71c.3.42.51.83.62,1.24.11.41.14.79.09,1.16-.06.31-.17.6-.35.87s-.41.51-.7.71h-.02c-.55.4-1.09.57-1.64.51s-1.05-.27-1.51-.64l-1.24,3.61-.99-1.39,1.16-3.3-1.05-1.47-2.33,1.66-.84-1.17,6.68-4.76,2.12,2.98Zm-2.36,3.06c.38.1.74.04,1.08-.21h.02c.36-.27.55-.59.57-.96.01-.38-.13-.78-.45-1.22l-1.22-1.71-2.24,1.6,1.22,1.72c.3.42.64.68,1.01.79Z"/><path class="cls-8" d="m153.02,587.44l-3.12,2.7,5.66.24,1.17,1.35-4.91-.27-1.19,5.76-1.15-1.33.95-4.53-1.83-.1-1.8,1.56-.94-1.09,6.2-5.37.94,1.09Z"/><path class="cls-8" d="m161.89,596.72l-.89.93-3.33-3.22-1.48,1.53,2.96,2.85-.9.93-2.96-2.85-1.52,1.58,3.38,3.26-.89.93-4.41-4.26,5.69-5.9,4.37,4.22Z"/><path class="cls-8" d="m161.71,598.35l.84-1.04,5.17,4.21-.84,1.04-2.02-1.65-4.34,5.32-1.12-.91,4.34-5.32-2.02-1.65Z"/><path class="cls-8" d="m170.06,603.15l-4.77,6.67-1.17-.84,4.77-6.67,1.17.84Z"/><path class="cls-8" d="m172.77,605.01l.78,7.12,2.96-4.83,1.21.74-4.28,6.99-1.03-.63-.81-7.33-3.05,4.97-1.21-.74,4.28-6.99,1.14.7Z"/><path class="cls-8" d="m177.78,617.06c-.38-.42-.65-.88-.82-1.38-.17-.5-.24-1.03-.2-1.58s.19-1.09.45-1.64v-.02c.26-.51.58-.96.99-1.33s.87-.66,1.37-.84,1.04-.27,1.61-.25,1.13.16,1.68.43c.32.16.61.32.85.49.24.17.46.35.64.55.19.19.35.4.49.62.14.22.27.46.38.71l-1.29.59c-.08-.19-.18-.36-.28-.53-.1-.17-.22-.32-.35-.47s-.28-.29-.46-.41c-.18-.13-.38-.25-.61-.36-.34-.16-.69-.25-1.04-.25-.36,0-.7.06-1.03.19s-.63.33-.9.59-.5.56-.67.91v.02c-.19.38-.3.76-.34,1.14-.04.38,0,.74.11,1.08s.29.65.53.93c.24.28.55.51.93.7.35.17.71.28,1.06.32s.69.04.99-.02l.66-1.37-1.89-.91.55-1.14,3.15,1.51-1.49,3.1c-.26.07-.53.12-.82.15-.29.03-.59.04-.9.03-.31-.02-.62-.07-.95-.15-.32-.08-.65-.2-.97-.36-.58-.28-1.06-.62-1.43-1.04Z"/><path class="cls-8" d="m190.04,622.12c-.49-.38-.9-.85-1.23-1.43l1.14-.72c.28.45.58.82.92,1.12.34.3.75.52,1.23.68.42.13.79.15,1.1.04.31-.1.51-.3.6-.59v-.02c.05-.14.07-.27.05-.4s-.07-.25-.17-.39c-.1-.14-.25-.28-.45-.44-.2-.15-.47-.33-.81-.53-.39-.23-.72-.46-1.01-.68-.29-.22-.51-.46-.67-.7-.16-.24-.26-.51-.3-.8-.04-.29,0-.61.12-.97v-.02c.11-.33.28-.62.5-.86.22-.24.48-.42.78-.54.3-.12.63-.19.99-.2.36,0,.74.05,1.12.17.57.18,1.06.43,1.47.74.41.31.76.69,1.06,1.14l-1.07.81c-.28-.37-.57-.68-.87-.93s-.64-.43-1-.54c-.4-.13-.74-.14-1.02-.03-.28.11-.46.29-.54.55v.02c-.05.15-.07.29-.05.42s.08.27.19.4c.11.14.27.29.49.44.21.16.49.34.85.55.38.23.7.46.97.69s.49.46.64.71c.16.25.25.51.27.79.03.28,0,.57-.11.89v.02c-.12.37-.29.67-.52.92s-.5.43-.81.56c-.31.12-.65.18-1.03.18-.38,0-.77-.07-1.18-.2-.6-.19-1.15-.48-1.63-.85Z"/><path class="cls-8" d="m204.3,617.62l-.28,1.26-4.53-1.02-.47,2.08,4.01.9-.29,1.27-4.01-.9-.48,2.14,4.58,1.03-.28,1.26-5.99-1.34,1.79-8,5.93,1.33Z"/><path class="cls-8" d="m209.39,618.35c.51.07.95.2,1.33.39.38.2.68.44.91.73.19.25.32.53.4.84.08.31.09.64.05,1v.02c-.09.67-.34,1.18-.75,1.54-.41.36-.91.58-1.5.67l1.79,3.36-1.7-.22-1.63-3.09-1.79-.23-.37,2.83-1.43-.19,1.06-8.13,3.62.47Zm.64,3.81c.33-.2.53-.52.58-.93v-.02c.06-.44-.04-.79-.31-1.06-.26-.27-.66-.43-1.2-.5l-2.08-.27-.35,2.73,2.09.27c.51.07.93,0,1.27-.21Z"/><path class="cls-8" d="m214.54,618.87l2.23,6.39,2.7-6.2,1.56.06-3.71,8.12-1.29-.05-3.08-8.38,1.59.06Z"/><path class="cls-8" d="m223.7,618.97l.24,8.19-1.44.04-.23-8.19,1.44-.04Z"/><path class="cls-8" d="m228.57,626.7c-.53-.17-.99-.42-1.4-.76-.41-.34-.74-.76-1-1.25-.26-.49-.42-1.03-.47-1.61v-.02c-.06-.58,0-1.14.15-1.67.16-.53.4-1,.74-1.42s.75-.77,1.24-1.04c.49-.27,1.04-.44,1.66-.5.38-.04.73-.04,1.04,0,.31.03.6.09.87.18s.52.2.75.33c.23.13.46.29.67.45l-.82,1.15c-.36-.27-.74-.48-1.11-.63s-.81-.2-1.28-.15c-.39.04-.74.15-1.05.33-.31.18-.57.41-.79.69s-.37.61-.47.97c-.1.36-.13.74-.1,1.14v.02c.04.4.14.76.31,1.11s.38.63.65.87c.27.24.57.42.92.54s.71.16,1.1.12c.5-.05.92-.18,1.25-.4.34-.22.67-.51.99-.87l1.01.84c-.19.25-.39.47-.6.66-.21.2-.44.37-.7.53-.25.15-.53.28-.84.38-.31.1-.65.16-1.03.2-.6.06-1.16,0-1.69-.17Z"/><path class="cls-8" d="m239.96,616.89l.24,1.27-4.56.86.4,2.09,4.04-.77.24,1.28-4.04.77.41,2.15,4.61-.88.24,1.27-6.03,1.14-1.53-8.05,5.97-1.13Z"/><path class="cls-8" d="m244.58,623.94c-.61-.05-1.22-.22-1.81-.52l.56-1.23c.48.22.94.37,1.38.43.44.07.91.03,1.4-.11.43-.12.74-.31.94-.56s.26-.53.18-.82v-.02c-.05-.14-.11-.26-.19-.36-.08-.1-.2-.17-.36-.23-.16-.06-.36-.1-.62-.12-.25-.02-.57-.02-.97,0-.45.02-.85.01-1.21-.02-.36-.03-.68-.11-.95-.22-.27-.11-.5-.28-.69-.51-.19-.22-.33-.51-.43-.88v-.02c-.1-.34-.12-.67-.06-.99.06-.32.17-.61.36-.88.18-.27.42-.5.72-.71.3-.21.64-.36,1.04-.47.58-.16,1.12-.22,1.63-.18s1.01.16,1.51.37l-.45,1.26c-.43-.16-.85-.26-1.24-.3-.39-.04-.77,0-1.13.09-.41.11-.7.29-.87.54s-.23.5-.15.76v.02c.05.15.11.28.2.38.08.1.21.18.38.23.17.05.38.09.65.1.26.02.6.01,1.01,0,.44,0,.84,0,1.19.04.35.04.66.12.93.25s.49.29.66.51.31.48.4.81v.02c.11.37.13.72.08,1.05-.06.33-.18.63-.37.91s-.45.51-.76.71c-.32.2-.68.36-1.09.48-.61.17-1.22.23-1.83.18Z"/><path class="cls-8" d="m387.81,612.91c.44.18.82.4,1.13.67s.54.56.7.88c.16.33.24.67.25,1.04s-.07.74-.22,1.12v.02c-.18.43-.41.77-.7,1.03s-.62.44-.98.54c-.36.11-.75.14-1.17.1-.42-.04-.83-.14-1.25-.31l-1.51-.61-.99,2.44-1.33-.54,3.08-7.59,2.99,1.21Zm-.36,4.01c.4-.13.67-.4.83-.8v-.02c.19-.45.18-.85-.03-1.19-.2-.35-.56-.62-1.05-.83l-1.55-.63-1.11,2.73,1.55.63c.51.21.96.24,1.35.11Z"/><path class="cls-8" d="m395.34,615.52c.49.15.91.35,1.25.61.34.25.6.54.78.87.14.28.23.58.25.9.03.32-.01.65-.12.99v.02c-.2.64-.53,1.11-1,1.39s-1,.43-1.59.42l1.22,3.62-1.64-.5-1.1-3.32-1.73-.52-.83,2.74-1.38-.42,2.38-7.85,3.5,1.06Zm0,3.86c.36-.15.61-.42.73-.83v-.02c.14-.43.09-.79-.12-1.1-.22-.31-.58-.54-1.1-.7l-2.01-.61-.8,2.64,2.02.61c.49.15.92.15,1.29,0Z"/><path class="cls-8" d="m400.25,625.05c-.47-.32-.85-.7-1.15-1.15-.29-.45-.5-.94-.61-1.49s-.11-1.1,0-1.67v-.02c.12-.57.32-1.08.63-1.54.3-.46.68-.85,1.13-1.15.45-.31.95-.52,1.51-.64s1.15-.12,1.77,0,1.17.34,1.64.66c.47.32.85.7,1.15,1.15s.5.94.61,1.49c.11.54.11,1.1,0,1.67v.02c-.11.57-.32,1.08-.63,1.54-.3.46-.68.85-1.13,1.15s-.95.52-1.51.64c-.56.12-1.15.12-1.77,0s-1.17-.34-1.64-.66Zm3.06-.66c.36-.08.69-.23.97-.44s.53-.47.73-.79c.2-.32.34-.67.42-1.06v-.02c.08-.39.08-.77.02-1.14-.07-.37-.2-.71-.39-1.02-.19-.31-.44-.57-.75-.79-.31-.22-.66-.36-1.06-.44-.4-.08-.78-.07-1.14,0-.36.08-.69.23-.97.44-.29.21-.53.47-.73.79s-.34.67-.42,1.07v.02c-.08.39-.08.77-.02,1.14.07.37.2.71.39,1.02.19.31.44.57.75.79.31.21.66.36,1.06.44.4.08.78.07,1.14-.01Z"/><path class="cls-8" d="m412.37,618.78c.47.04.9.15,1.27.31.37.16.68.38.93.65.25.27.42.57.54.92s.15.73.11,1.14v.02c-.05.46-.17.85-.37,1.18-.2.33-.46.6-.78.8-.32.21-.68.35-1.09.43-.41.08-.84.1-1.29.06l-1.62-.15-.25,2.62-1.43-.14.77-8.16,3.22.3Zm.81,3.95c.34-.24.53-.58.57-1v-.02c.05-.48-.08-.86-.37-1.13s-.71-.44-1.25-.49l-1.67-.16-.28,2.94,1.67.16c.54.05.99-.04,1.33-.29Z"/><path class="cls-8" d="m422.77,619.17l-.02,1.29-4.64-.07-.03,2.13,4.11.06-.02,1.3-4.11-.06-.03,2.19,4.7.07-.02,1.29-6.14-.1.13-8.2,6.08.09Z"/><path class="cls-8" d="m427.83,618.82c.51-.04.97,0,1.38.11s.75.29,1.04.52c.24.21.42.46.56.74.14.29.22.61.25.97v.02c.06.67-.08,1.22-.41,1.66-.33.44-.77.76-1.33.97l2.45,2.92-1.7.14-2.24-2.69-1.8.14.23,2.85-1.44.11-.65-8.17,3.64-.29Zm1.41,3.59c.28-.27.41-.61.38-1.03v-.02c-.04-.44-.21-.77-.53-.97-.31-.21-.74-.29-1.28-.25l-2.09.17.22,2.74,2.1-.17c.51-.04.91-.2,1.2-.47Z"/><path class="cls-8" d="m431.97,619.77l-.22-1.32,6.57-1.11.22,1.32-2.58.44,1.14,6.77-1.42.24-1.14-6.77-2.58.44Z"/><path class="cls-8" d="m438.7,617.29l1.66-.43,3.13,2.93,1.33-4.09,1.6-.42-1.91,5.6.83,3.16-1.41.37-.82-3.13-4.41-3.98Z"/><path class="cls-8" d="m452.81,612.94l3.83,2.56.74-4.55,1.41-.61,3.27,7.52-1.32.57-2.34-5.39-.83,4.58-.04.02-3.88-2.5,2.33,5.37-1.3.57-3.27-7.52,1.41-.61Z"/><path class="cls-8" d="m464.05,607.38l7.21,5.39-1.32.75-1.7-1.31-3.37,1.92.25,2.14-1.28.73-.94-8.96,1.16-.66Zm.25,1.84l.4,3.54,2.45-1.39-2.85-2.15Z"/><path class="cls-8" d="m469.21,604.25l6.86,2.07-3.29-4.62,1.15-.82,4.75,6.68-.98.7-7.06-2.13,3.38,4.75-1.15.82-4.75-6.68,1.09-.77Z"/><path class="cls-8" d="m478.48,596.94l8.16,3.83-1.14,1-1.93-.94-2.92,2.56.67,2.04-1.11.97-2.73-8.58,1-.88Zm.62,1.75l1.11,3.39,2.12-1.86-3.23-1.53Z"/><path class="cls-8" d="m488.94,598.09c-.51.23-1.04.36-1.57.37-.53,0-1.05-.09-1.56-.29-.51-.2-.99-.51-1.42-.92l-.02-.02c-.42-.39-.74-.84-.97-1.34-.23-.5-.36-1.02-.39-1.56-.02-.54.06-1.07.25-1.61.19-.53.5-1.02.92-1.47.25-.26.49-.48.73-.66s.48-.33.72-.44.49-.21.74-.28.52-.12.79-.15l.17,1.41c-.2.02-.4.06-.59.1-.19.05-.37.11-.55.19-.18.08-.36.18-.53.31-.18.13-.35.29-.53.48-.26.27-.44.58-.55.92-.11.34-.15.69-.12,1.04.03.35.12.7.28,1.04.16.34.38.64.67.91l.02.02c.31.29.64.51.99.66s.71.22,1.06.22c.36,0,.7-.08,1.04-.22s.66-.37.95-.68c.27-.28.48-.59.63-.91.15-.32.24-.64.28-.95l-1.11-1.04-1.44,1.53-.92-.87,2.39-2.54,2.51,2.36c-.01.27-.05.54-.1.83s-.14.57-.25.86c-.11.29-.25.57-.43.86s-.39.56-.63.82c-.44.47-.92.82-1.43,1.05Z"/><path class="cls-8" d="m491.39,582.78l1.02.79-2.85,3.66,1.68,1.31,2.53-3.25,1.03.8-2.53,3.25,1.73,1.35,2.89-3.71,1.02.79-3.77,4.85-6.47-5.04,3.74-4.8Z"/><path class="cls-8" d="m493.08,580.33l4.61-.04-1.95-4.17.82-1.3,6.93,4.37-.77,1.22-4.97-3.13,1.89,4.25-.02.04-4.62.12,4.95,3.12-.75,1.2-6.93-4.37.82-1.3Z"/><path class="cls-8" d="m500.11,567.77l1.15.58-2.07,4.15,1.91.95,1.84-3.68,1.16.58-1.84,3.68,1.96.98,2.1-4.2,1.15.58-2.74,5.49-7.34-3.66,2.72-5.44Z"/><path class="cls-8" d="m501.2,565.19l6.87-2.06-5.29-2.04.51-1.32,7.65,2.95-.43,1.12-7.07,2.12,5.44,2.1-.51,1.32-7.65-2.95.48-1.25Z"/><path class="cls-8" d="m504.95,558.97l-1.29-.36,1.81-6.42,1.29.36-.71,2.51,6.61,1.86-.39,1.39-6.61-1.86-.71,2.51Z"/><path class="cls-10" d="m485.35,383.84h9.34v2.35h-6.42v2.89h3.27v2.42h-3.27v4.81h-2.92v-12.48Z"/><path class="cls-10" d="m499.52,394.82c-.66,1.18-1.84,1.75-3.14,1.75-2.39,0-3.4-1.44-3.4-3.48v-5.63h2.82v4.87c0,1.32.5,1.94,1.57,1.94s1.85-.78,1.87-2.28v-4.53h2.8v8.86h-2.3l-.21-1.5Z"/><path class="cls-10" d="m505.54,387.45l.23,1.6c.68-1.19,1.85-1.84,3.28-1.84,2.3,0,3.3,1.41,3.3,3.53v5.56h-2.82v-4.62c0-1.53-.53-2.03-1.57-2.03-1.14,0-1.93.77-1.94,2.3v4.35h-2.82v-8.86h2.34Z"/><path class="cls-10" d="m520.09,394.94c-.59,1.05-1.62,1.62-3.03,1.62-2.28,0-3.74-1.57-3.74-4.58s1.55-4.76,3.9-4.76c1.16,0,2.03.43,2.6,1.21v-4.6h2.82v12.48h-2.41l-.14-1.37Zm-2.21-5.63c-1.19,0-1.84.77-1.84,2.6,0,1.73.61,2.55,1.85,2.55,1.14,0,1.96-.8,1.96-2.57,0-1.85-.84-2.58-1.98-2.58Z"/><path class="cls-10" d="m525.24,383.39c1.03,0,1.62.45,1.62,1.46s-.59,1.44-1.62,1.44-1.62-.46-1.62-1.44.59-1.46,1.62-1.46Zm1.41,4.06v8.86h-2.82v-8.86h2.82Z"/><path class="cls-10" d="m530.08,387.45l.23,1.6c.68-1.19,1.85-1.84,3.28-1.84,2.3,0,3.3,1.41,3.3,3.53v5.56h-2.82v-4.62c0-1.53-.53-2.03-1.57-2.03-1.14,0-1.93.77-1.94,2.3v4.35h-2.82v-8.86h2.34Z"/><path class="cls-10" d="m547.1,395.96c0,2.94-2.09,4.3-4.97,4.3-1.75,0-3.33-.52-4.05-1.94l1.59-1.37c.53.94,1.35,1.3,2.35,1.3,1.41,0,2.28-.7,2.28-2.25v-1.27c-.55.98-1.46,1.48-2.78,1.48-2.23,0-3.71-1.48-3.71-4.46s1.52-4.53,3.87-4.53c1.32,0,2.34.5,2.91,1.52l.23-1.28h2.28v8.5Zm-4.74-6.67c-1.21,0-1.85.78-1.85,2.42s.64,2.44,1.85,2.44,1.96-.8,1.96-2.46-.82-2.41-1.96-2.41Z"/><path class="cls-10" d="m571.01,387.45h2.34l.23,1.76c.61-1.3,1.76-2.03,3.17-2l.02,2.67c-1.98-.16-2.92,1-2.94,2.91v3.51h-2.82v-8.86Z"/><path class="cls-10" d="m577.74,383.84h2.8l-.07,7.66,3.28-4.05h3.05l-3.37,3.94,3.4,4.92h-3.1l-2.12-3.1-1.09,1.19v1.91h-2.78v-12.48Z"/><path class="cls-10" d="m586.39,391.95c0-2.98,1.64-4.72,4.53-4.72s4.17,1.96,4.17,4.47c0,.3-.02.61-.07.96h-5.95c.12,1.41.86,1.98,2.14,1.98.96,0,1.6-.29,2.05-1.12l1.69,1.03c-.73,1.37-2.12,2.01-3.96,2.01-2.82,0-4.6-1.48-4.6-4.62Zm2.67-.91h3.44c-.07-1.25-.62-1.85-1.64-1.85s-1.69.59-1.8,1.85Z"/><path class="cls-10" d="m598.42,396.35l-3.49-8.89h2.91l2.07,5.9,2-5.9h2.89l-4.12,10.5c-.7,1.75-2,2.28-3.65,2.28-.77,0-1.3-.11-1.91-.34l.29-2.01c.46.2.86.29,1.28.29.62,0,1.21-.25,1.52-1.12l.23-.7Z"/><path class="cls-10" d="m562.5,383.84v2.46h-3.81v10.02h-2.92v-10.02h-3.81v-2.46h10.55Z"/><path class="cls-10" d="m567.33,394.82c-.66,1.18-1.84,1.75-3.14,1.75-2.39,0-3.4-1.44-3.4-3.48v-5.63h2.82v4.87c0,1.32.5,1.94,1.57,1.94s1.85-.78,1.87-2.28v-4.53h2.8v8.86h-2.3l-.21-1.5Z"/><polygon class="cls-22" points="560.23 350.68 560.23 374.98 529.91 374.98 529.91 353.14 560.23 350.68"/><polygon class="cls-9" points="534.69 370.48 537.61 370.48 537.61 365.66 543.21 365.66 543.21 363.24 537.61 363.24 537.61 360.35 544.03 360.35 544.03 358 534.69 358 534.69 370.48"/><polygon class="cls-9" points="545.48 358 545.48 360.46 549.29 360.46 549.29 370.48 552.22 370.48 552.22 360.46 556.03 360.46 556.03 358 545.48 358"/><polygon class="cls-22" points="529.91 348.4 529.91 350.72 560.23 348.27 560.23 345.94 529.91 348.4"/><path class="cls-15" d="m40.94,363.09h-8.79v19.23h5.44v-5.03h3.35c5.25,0,8.54-2.72,8.54-7.09s-3.3-7.11-8.54-7.11Zm-.33,9.91h-3.02v-5.63h3.02c2.25,0,3.38,1.04,3.38,2.83s-1.13,2.8-3.38,2.8Zm7.32-9.91c.18.13.35.25.51.39,1.26,1.05,2.14,2.38,2.61,3.92h2.77v14.91h5.44v-14.91h5.88v-4.31h-17.21Z"/><path class="cls-18" d="m134.27,367.04h-15.9c-2.96,0-5.43,2.45-5.43,5.69s2.5,5.74,5.44,5.74,5.33-2.5,5.33-5.74c0-1.47-.49-2.78-1.3-3.77h5.59c.47,1.14.73,2.4.73,3.74,0,5.6-4.45,9.86-10.41,9.86s-10.38-4.23-10.38-9.86,4.45-9.61,10.38-9.61h15.94v3.95Zm-62.53-3.93v19.23h4.89v-5.41h3.49c4.92,0,7.75-2.61,7.75-7.11s-2.83-6.7-7.75-6.7h-8.38Zm4.89,3.85h3.24c2.14,0,3.38,1.02,3.38,3.02s-1.24,3.1-3.38,3.1h-3.24v-6.12Zm24.7,15.38h5.55l-4.04-6.34c2.25-1.13,3.49-3.24,3.49-6.18,0-4.28-2.91-6.7-7.99-6.7h-8.6v19.23h4.89v-5.41h3.85l2.86,5.41Zm-6.7-9.26v-6.12h3.71c2.11,0,3.35,1.02,3.35,3.02s-1.24,3.1-3.35,3.1h-3.71Zm64.53-6.12v-3.85h-15.05v19.23h15.35v-3.85h-10.46v-3.87h9.17v-3.85h-9.17v-3.82h10.16Zm-22.43-3.87v12.91c0,1.57-.77,2.36-2.06,2.36-1.12,0-2.64-.71-4.01-2.12-.4,1.35-1.04,2.59-1.86,3.69,1.64,1.67,3.7,2.63,6.21,2.63,4.09,0,6.65-2.36,6.65-6.45v-13.02h-4.92Zm4.92-4.71l-2.5-2.01-2.5,2.01v3.01s5,0,5,0v-3.01Z"/><path class="cls-21" d="m86.86,396.61c0,1.08-.78,1.73-2.07,1.73h-1.22v1.5h-.71v-4.96h1.93c1.29,0,2.07.65,2.07,1.73Zm-.71,0c0-.71-.47-1.11-1.38-1.11h-1.2v2.22h1.2c.91,0,1.38-.4,1.38-1.11Z"/><path class="cls-21" d="m89.52,396.06v.66c-.06,0-.11,0-.16,0-.73,0-1.18.45-1.18,1.27v1.87h-.68v-3.75h.65v.63c.24-.44.71-.67,1.37-.67Z"/><path class="cls-21" d="m89.72,397.97c0-1.12.83-1.91,1.95-1.91s1.95.79,1.95,1.91-.82,1.92-1.95,1.92-1.95-.8-1.95-1.92Zm3.21,0c0-.8-.54-1.32-1.26-1.32s-1.27.52-1.27,1.32.55,1.32,1.27,1.32,1.26-.52,1.26-1.32Z"/><path class="cls-21" d="m98.22,397.97c0,1.15-.8,1.92-1.9,1.92-.53,0-1-.21-1.31-.61v1.94h-.68v-5.13h.65v.59c.3-.42.79-.63,1.34-.63,1.1,0,1.9.76,1.9,1.91Zm-.69,0c0-.79-.55-1.32-1.27-1.32s-1.26.52-1.26,1.32.55,1.32,1.26,1.32,1.27-.52,1.27-1.32Z"/><path class="cls-21" d="m102.37,398.19h-3.04c.08.66.62,1.1,1.36,1.1.44,0,.81-.15,1.08-.45l.38.44c-.34.4-.86.61-1.48.61-1.21,0-2.02-.8-2.02-1.92s.8-1.91,1.88-1.91,1.86.78,1.86,1.93c0,.06,0,.14-.01.21Zm-3.04-.49h2.41c-.07-.63-.55-1.08-1.2-1.08s-1.13.44-1.2,1.08Z"/><path class="cls-21" d="m105.1,396.06v.66c-.06,0-.11,0-.16,0-.73,0-1.18.45-1.18,1.27v1.87h-.68v-3.75h.65v.63c.24-.44.71-.67,1.37-.67Z"/><path class="cls-21" d="m108.06,399.62c-.21.18-.52.26-.82.26-.76,0-1.19-.42-1.19-1.18v-2.06h-.64v-.56h.64v-.82h.68v.82h1.08v.56h-1.08v2.03c0,.4.21.63.59.63.2,0,.39-.06.53-.18l.21.49Z"/><path class="cls-21" d="m112.13,396.09l-1.82,4.13c-.33.79-.76,1.04-1.34,1.04-.36,0-.73-.12-.96-.35l.29-.51c.18.18.42.28.67.28.33,0,.53-.15.72-.58l.12-.26-1.66-3.75h.71l1.31,3,1.3-3h.67Z"/><path class="cls-21" d="m116.21,395.91v3.94h-1.26v-3.94h-1.48v-1.02h4.23v1.02h-1.49Z"/><path class="cls-21" d="m122.8,397.77c0,1.31-.87,2.14-2.26,2.14s-2.29-.83-2.29-2.14v-2.87h1.26v2.87c0,.67.43,1.08,1.03,1.08s1-.41,1-1.08v-2.87h1.25v2.87Z"/><path class="cls-21" d="m125.6,398.46h-.99v1.39h-1.26v-4.96h2.22c1.31,0,2.06.62,2.06,1.73,0,.76-.32,1.3-.9,1.59l1.04,1.64h-1.43l-.74-1.39Zm-.04-.99c.55,0,.86-.28.86-.8s-.32-.78-.86-.78h-.96v1.58h.96Z"/><path class="cls-21" d="m130.23,397.9l-.66.73v1.22h-1.26v-4.96h1.26v2.15l1.9-2.15h1.46l-1.84,2.05,1.96,2.9h-1.51l-1.31-1.95Z"/><path class="cls-21" d="m134.64,395.89v.98h2.36v.99h-2.36v1h2.7v.99h-3.96v-4.96h3.88v.99h-2.62Z"/><path class="cls-21" d="m140.6,399.85h-1.25v-1.56l-1.83-3.39h1.26l1.2,2.16,1.17-2.16h1.26l-1.8,3.36v1.6Z"/><path class="cls-21" d="m50.83,396.08h-1.4l-.75,3.77h.54l.23-1.14h1c.36,0,.68-.06.94-.18.27-.12.47-.29.61-.52s.21-.5.21-.82c0-.35-.12-.62-.36-.81-.24-.19-.58-.29-1.02-.29Zm.52,1.9c-.21.17-.51.26-.9.26h-.92l.34-1.69h.91c.29,0,.51.06.66.17s.23.29.23.51c0,.33-.11.58-.32.75Z"/><path class="cls-21" d="m54.77,397.12c-.2-.1-.44-.15-.71-.15-.32,0-.61.07-.86.22-.25.15-.45.34-.59.6s-.22.54-.22.86c0,.25.06.46.17.65.11.18.27.33.47.43.2.1.44.15.71.15.33,0,.61-.07.86-.22.25-.15.45-.35.59-.6.14-.25.22-.54.22-.86,0-.25-.05-.47-.16-.65-.11-.18-.26-.32-.47-.43Zm-.03,1.72c-.1.18-.23.32-.4.43-.17.1-.36.16-.58.16-.27,0-.48-.07-.63-.22-.15-.14-.22-.34-.22-.59s.05-.45.15-.63c.1-.18.23-.32.4-.43.17-.1.36-.15.57-.15.27,0,.48.07.63.21.15.14.22.34.22.59,0,.23-.05.44-.14.62Z"/><polygon class="cls-21" points="60.14 396.99 58.86 399.25 58.43 396.99 57.99 396.99 56.7 399.25 56.28 396.99 55.81 396.99 56.35 399.84 56.85 399.84 58.09 397.69 58.52 399.84 59.03 399.84 60.63 396.99 60.14 396.99"/><path class="cls-21" d="m62.78,397.11c-.19-.1-.41-.15-.67-.15-.31,0-.58.07-.83.22-.24.15-.43.34-.57.59-.14.25-.21.54-.21.86,0,.25.06.47.17.65.11.18.27.33.47.43.2.1.45.15.73.15.22,0,.43-.03.64-.1s.37-.17.51-.3l-.22-.37c-.1.1-.23.18-.38.24-.15.06-.32.09-.5.09-.31,0-.53-.07-.68-.21-.15-.14-.22-.34-.22-.6,0-.01,0-.02,0-.03h2.34c.01-.06.02-.12.03-.19,0-.07.01-.13.01-.2,0-.26-.05-.48-.16-.66-.11-.18-.25-.32-.44-.42Zm-1.64.86c.09-.18.22-.32.38-.43s.35-.15.57-.15c.18,0,.34.04.47.11.13.07.23.18.29.32.05.11.07.23.06.38h-1.85c.02-.08.05-.16.08-.23Z"/><path class="cls-21" d="m65.68,397.47l.1-.5c-.3,0-.55.05-.76.15-.14.07-.27.17-.37.31l.08-.43h-.5l-.57,2.85h.52l.29-1.43c.06-.33.19-.57.37-.73s.42-.23.7-.23h.07s.04,0,.06,0Z"/><path class="cls-21" d="m67.89,397.11c-.19-.1-.41-.15-.67-.15-.31,0-.58.07-.83.22-.24.15-.43.34-.57.59-.14.25-.21.54-.21.86,0,.25.06.47.17.65.11.18.27.33.47.43.2.1.45.15.73.15.22,0,.43-.03.64-.1s.37-.17.51-.3l-.22-.37c-.1.1-.23.18-.38.24-.15.06-.32.09-.5.09-.31,0-.53-.07-.68-.21-.15-.14-.22-.34-.22-.6,0-.01,0-.02,0-.03h2.34c.01-.06.02-.12.03-.19,0-.07.01-.13.01-.2,0-.26-.05-.48-.16-.66-.11-.18-.25-.32-.44-.42Zm-1.64.86c.09-.18.22-.32.38-.43s.35-.15.57-.15c.18,0,.34.04.47.11.13.07.23.18.29.32.05.11.07.23.06.38h-1.85c.02-.08.05-.16.08-.23Z"/><path class="cls-21" d="m71.5,397.48s0,0,0,0c-.09-.17-.23-.29-.4-.38s-.38-.13-.63-.13c-.23,0-.44.04-.64.12-.2.08-.37.2-.51.35-.15.15-.26.33-.34.53-.08.2-.12.43-.12.67,0,.26.05.48.16.66.11.18.26.32.45.42.19.1.41.15.65.15s.45-.04.64-.13c.14-.07.26-.16.38-.27l-.07.36h.5l.8-3.99h-.52l-.33,1.63Zm-.7,1.79c-.17.1-.36.16-.58.16-.27,0-.48-.07-.63-.22-.15-.14-.22-.34-.22-.59s.05-.45.15-.63c.1-.18.23-.32.4-.43.17-.1.36-.15.57-.15.27,0,.48.07.63.21.15.14.22.34.22.59,0,.23-.05.44-.14.62s-.23.32-.4.43Z"/><path class="cls-21" d="m77.12,398.86c.08-.2.12-.43.12-.67s-.05-.47-.16-.66c-.11-.18-.26-.33-.45-.42s-.4-.15-.65-.15-.45.04-.64.13c-.13.06-.24.14-.35.24l.3-1.48h-.52l-.8,3.99h.49l.11-.52s.01.03.02.04c.09.17.23.29.4.38s.38.13.63.13c.23,0,.44-.04.64-.13.2-.08.37-.2.51-.35.15-.15.26-.33.34-.53Zm-.55-.02c-.1.18-.23.32-.4.43-.17.1-.36.16-.57.16-.27,0-.48-.07-.63-.22-.15-.14-.22-.34-.22-.59s.05-.45.14-.63c.09-.18.23-.32.4-.43.17-.1.36-.15.57-.15.27,0,.48.07.63.21.15.14.22.34.22.59,0,.23-.05.44-.15.62Z"/><path class="cls-21" d="m80.09,396.99l-1.44,2.28-.55-2.28h-.52l.69,2.84-.15.23c-.1.16-.2.27-.29.33-.1.06-.2.09-.32.09-.1,0-.19-.02-.27-.05-.08-.03-.15-.08-.21-.14l-.27.38c.08.08.18.14.31.19.13.04.27.07.4.07.15,0,.29-.02.41-.07.12-.05.24-.13.35-.24s.23-.26.36-.46l2.02-3.16h-.52Z"/></g></svg>