<svg xmlns="http://www.w3.org/2000/svg" xmlns:xlink="http://www.w3.org/1999/xlink" width="341.033" height="300" viewBox="0 0 341.033 300">
  <defs>
    <clipPath id="clip-path">
      <rect id="Rectangle_76" data-name="Rectangle 76" width="291.481" height="264.448" fill="#010449"/>
    </clipPath>
  </defs>
  <g id="ROI_Icon" data-name="ROI Icon" transform="translate(-1038 -2558.495)">
    <path id="Path_632" data-name="Path 632" d="M341.033,0,0,27.619V71.1L341.033,43.485Z" transform="translate(1038 2787.391)" fill="#e92427"/>
    <g id="Group_131" data-name="Group 131" transform="translate(1062.776 2558.495)">
      <g id="Group_130" data-name="Group 130" clip-path="url(#clip-path)">
        <path id="Path_630" data-name="Path 630" d="M291.475,232.066V183.494h0a5.4,5.4,0,0,0-5.4-5.4H222.7a83.26,83.26,0,0,0-79.929-.1l-.181.1h-40a21.616,21.616,0,0,0-20.846,27.24l-21.018-9.632a9.9,9.9,0,0,1,1.58-2.078L74.02,181.91v0A5.393,5.393,0,0,0,75.6,178.1v-70.16A70.349,70.349,0,0,1,126.984,40.32a5.395,5.395,0,0,0,3.2-7.945l-12.75-21.581h56.641l-12.75,21.581h0a5.395,5.395,0,0,0,3.2,7.945,70.349,70.349,0,0,1,51.384,67.618V167.3h10.794V107.938a81.22,81.22,0,0,0-52.666-75.867L188.183,8.144l0,0A5.4,5.4,0,0,0,183.538,0H107.981a5.4,5.4,0,0,0-4.648,8.141l14.135,23.927,0,0a81.216,81.216,0,0,0-52.666,75.867V175.86L54.666,186v0a20.643,20.643,0,0,0-3.785,5.2L32.667,182.86v0A23.293,23.293,0,0,0,2.809,192.862c-6.206,11.551-1.8,26.826,9.965,32.719L75.7,257.045v0a70.547,70.547,0,0,0,31.374,7.4h76.458V253.653H107.078a59.712,59.712,0,0,1-26.546-6.264L17.609,215.928c-6.211-3.1-8.549-11.909-5.292-17.945h0a12.36,12.36,0,0,1,15.866-5.31l61.366,28.109v0a5.375,5.375,0,0,0,2.248.492h59.365V210.477H102.587a10.794,10.794,0,1,1,0-21.587h41.374a5.4,5.4,0,0,0,2.57-.651l1.4-.756a72.509,72.509,0,0,1,67.995-.78v66.953H194.336v10.793h91.748a5.4,5.4,0,0,0,5.4-5.4h0Zm-10.8-21.586v43.176H226.712V188.892H280.68Zm-21.587,21.587a10.809,10.809,0,1,0-3.166,7.628A10.8,10.8,0,0,0,259.093,232.067ZM151.155,86.351v21.587a21.588,21.588,0,1,1,0,43.176v10.794H140.361V151.114a21.609,21.609,0,0,1-21.587-21.587h10.794a10.809,10.809,0,0,0,10.793,10.793V118.732a21.588,21.588,0,1,1,0-43.176V64.763h10.794V75.557a21.611,21.611,0,0,1,21.587,21.588H161.949a10.809,10.809,0,0,0-10.794-10.794Zm-10.794,0a10.794,10.794,0,1,0,0,21.587Zm10.794,32.381V140.32a10.794,10.794,0,1,0,0-21.587" transform="translate(0 0)" fill="#010449"/>
      </g>
    </g>
  </g>
</svg>
