<svg xmlns="http://www.w3.org/2000/svg" xmlns:xlink="http://www.w3.org/1999/xlink" width="341.033" height="278.211" viewBox="0 0 341.033 278.211">
  <defs>
    <clipPath id="clip-path">
      <rect id="Rectangle_75" data-name="Rectangle 75" width="244.001" height="245.574" fill="#010449"/>
    </clipPath>
  </defs>
  <g id="Tax_Icon" data-name="Tax Icon" transform="translate(-1344 -2573.445)">
    <path id="Path_634" data-name="Path 634" d="M341.033,0,0,27.619V71.1L341.033,43.485Z" transform="translate(1344 2780.552)" fill="#e92427"/>
    <g id="Group_129" data-name="Group 129" transform="translate(1392.516 2573.445)">
      <g id="Group_128" data-name="Group 128" clip-path="url(#clip-path)">
        <path id="Path_629" data-name="Path 629" d="M0,171.553c0,13.168,12.992,21.288,23.891,25.782,14.144,5.831,33.754,9.175,53.8,9.175a165.546,165.546,0,0,0,25.424-2.076l1.245-.195.578,1.12A73.519,73.519,0,0,0,244,172.077c0-40.671-32.971-73.76-73.5-73.76A69.892,69.892,0,0,0,157.717,99.6l-2.07.388V34.7c0-13.147-12.988-21.2-23.885-25.648C117.667,3.3,98.055,0,77.955,0,57.817,0,38.122,3.333,23.919,9.144,13.008,13.61,0,21.666,0,34.7Zm170.5-60.738a61.263,61.263,0,1,1-61.263,61.263A61.332,61.332,0,0,1,170.5,110.814M77.692,12.235c17.454,0,34.081,2.6,46.816,7.319,11.847,4.39,18.641,9.909,18.641,15.141s-6.794,10.751-18.641,15.141c-12.736,4.72-29.362,7.319-46.816,7.319-36.864,0-65.457-12.073-65.457-22.46s28.593-22.46,65.457-22.46M12.235,57.5v-3.1l2.651,1.6c14.159,8.544,37.638,13.644,62.807,13.644s48.649-5.1,62.807-13.644l2.651-1.6V69.041c0,10.387-28.593,22.46-65.457,22.46S12.235,79.427,12.235,69.041Zm0,34.345v-3.1l2.651,1.6C29.044,98.9,52.523,104,77.692,104s48.649-5.1,62.807-13.644l2.651-1.6v15l-1.059.454a72.222,72.222,0,0,0-23.812,16.123l-.333.346-.463.127a152.458,152.458,0,0,1-39.79,5.044c-36.864,0-65.457-12.073-65.457-22.46Zm0,34.083v-3.1l2.651,1.6c14.159,8.544,37.638,13.644,62.807,13.644A165.544,165.544,0,0,0,103.116,136l3.421-.535-1.6,3.07a67.461,67.461,0,0,0-6.65,18.661l-.237,1.232-1.244.17a140.147,140.147,0,0,1-19.113,1.327c-36.864,0-65.457-12.073-65.457-22.46Zm0,34.345v-3.1l2.651,1.6c14.159,8.544,37.638,13.644,62.807,13.644,5.688,0,11.513-.53,17.146-1.042l1.906-.173v1.914A66.519,66.519,0,0,0,99.3,190.756l.551,2.02-2.086.181c-1.192.1-2.4.218-3.639.334-5.147.484-10.471.984-16.438.984-36.864,0-65.457-12.073-65.457-22.46ZM197.321,145a5.816,5.816,0,0,1,1.847,4.27,6.733,6.733,0,0,1-1.644,4.329l-45.561,45.561a6.04,6.04,0,1,1-8.537-8.544L188.781,145a5.858,5.858,0,0,1,8.54,0m-37.479,5.843a10.575,10.575,0,1,1-10.575-10.575,10.586,10.586,0,0,1,10.575,10.575m42.211,42.211a10.575,10.575,0,1,1-10.575-10.575,10.586,10.586,0,0,1,10.575,10.575" fill="#010449"/>
      </g>
    </g>
  </g>
</svg>
